<mxfile host="Electron" agent="Mozilla/5.0 (Windows NT 10.0; Win64; x64) AppleWebKit/537.36 (KHTML, like Gecko) draw.io/24.7.17 Chrome/128.0.6613.36 Electron/32.0.1 Safari/537.36" version="24.7.17">
  <diagram name="第 1 页" id="-iSeEPO-V4pbQyeClaRA">
    <mxGraphModel dx="1430" dy="826" grid="0" gridSize="10" guides="1" tooltips="1" connect="1" arrows="1" fold="1" page="1" pageScale="1" pageWidth="1169" pageHeight="827" math="0" shadow="0">
      <root>
        <mxCell id="0" />
        <mxCell id="1" parent="0" />
        <mxCell id="gU2KNp1fhgWOnNIcZfWo-12" style="edgeStyle=orthogonalEdgeStyle;rounded=0;orthogonalLoop=1;jettySize=auto;html=1;" parent="1" source="gU2KNp1fhgWOnNIcZfWo-1" target="gU2KNp1fhgWOnNIcZfWo-3" edge="1">
          <mxGeometry relative="1" as="geometry" />
        </mxCell>
        <mxCell id="gU2KNp1fhgWOnNIcZfWo-1" value="" style="shape=image;verticalLabelPosition=bottom;labelBackgroundColor=default;verticalAlign=top;aspect=fixed;imageAspect=0;image=data:image/svg+xml,PHN2ZyB4bWxucz0iaHR0cDovL3d3dy53My5vcmcvMjAwMC9zdmciIHZpZXdCb3g9IjAgMCAxMjggMTI4Ij48cGF0aCBkPSJtMTE1LjY3OSA2OS4yODgtMTUuNTkxLTguOTQtMi42ODktMS4xNjMtNjMuNzgxLjQzNnYzMi4zODFoODIuMDYxeiIgZmlsbD0iI0ZGRiIvPjxwYXRoIGQ9Ik04Ny4yOTUgODkuMDIyYy43NjMtMi42MTcuNDcyLTUuMDE1LS44LTYuNzk2LTEuMTYzLTEuNjM1LTMuMTI1LTIuNTgtNS40ODgtMi42ODlsLTQ0LjczNy0uNTgxYy0uMjkxIDAtLjU0NS0uMTQ1LS42OTEtLjM2M3MtLjE4Mi0uNTA5LS4xMDktLjhjLjE0NS0uNDM2LjU4MS0uNzYzIDEuMDU0LS44bDQ1LjEzNy0uNTgxYzUuMzQyLS4yNTQgMTEuMTU3LTQuNTc5IDEzLjE5Mi05Ljg4NWwyLjU4LTYuNzIzYy4xMDktLjI5MS4xNDUtLjU4MS4wNzMtLjg3Mi0yLjkwNi0xMy4xNTgtMTQuNjQ0LTIyLjk3LTI4LjY3Mi0yMi45Ny0xMi45MzggMC0yMy45MTMgOC4zNTktMjcuODM4IDE5Ljk1MmExMy4zNSAxMy4zNSAwIDAgMC05LjI2Ny0yLjU4Yy02LjIxNS42MTgtMTEuMTkzIDUuNTk3LTExLjgxMSAxMS44MTEtLjE0NSAxLjU5OS0uMDM2IDMuMTYyLjMyNyA0LjYxNUMxMC4xMDQgNzAuMDUxIDIgNzguMzM3IDIgODguNTQ5YzAgLjkwOS4wNzMgMS44MTcuMTgyIDIuNzI2YS44OTUuODk1IDAgMCAwIC44NzIuNzYzaDgyLjU3Yy40NzIgMCAuOTA5LS4zMjcgMS4wNTQtLjhsLjYxNy0yLjIxNnoiIGZpbGw9IiNGMzgwMjAiLz48cGF0aCBkPSJNMTAxLjU0MiA2MC4yNzVjLS40IDAtLjgzNiAwLTEuMjM2LjAzNi0uMjkxIDAtLjU0NS4yMTgtLjY1NC41MDlsLTEuNzQ0IDYuMDY5Yy0uNzYzIDIuNjE3LS40NzIgNS4wMTUuOCA2Ljc5NiAxLjE2MyAxLjYzNSAzLjEyNSAyLjU4IDUuNDg4IDIuNjg5bDkuNTIyLjU4MWMuMjkxIDAgLjU0NS4xNDUuNjkxLjM2My4xNDUuMjE4LjE4Mi41NDUuMTA5LjgtLjE0NS40MzYtLjU4MS43NjMtMS4wNTQuOGwtOS45MjQuNTgyYy01LjM3OS4yNTQtMTEuMTU3IDQuNTc5LTEzLjE5MiA5Ljg4NWwtLjcyNyAxLjg1M2MtLjE0NS4zNjMuMTA5LjcyNy41MDkuNzI3aDM0LjA4OWMuNCAwIC43NjMtLjI1NC44NzItLjY1NC41ODEtMi4xMDguOTA5LTQuMzI1LjkwOS02LjYxNCAwLTEzLjQ0Ny0xMC45NzUtMjQuNDIyLTI0LjQ1OC0yNC40MjIiIGZpbGw9IiNGQUFFNDAiLz48L3N2Zz4=;" parent="1" vertex="1">
          <mxGeometry x="839.999951171875" y="258.99998779296874" width="128" height="128" as="geometry" />
        </mxCell>
        <mxCell id="gU2KNp1fhgWOnNIcZfWo-23" style="edgeStyle=orthogonalEdgeStyle;rounded=0;orthogonalLoop=1;jettySize=auto;html=1;" parent="1" source="gU2KNp1fhgWOnNIcZfWo-2" edge="1">
          <mxGeometry relative="1" as="geometry">
            <mxPoint x="530" y="677" as="targetPoint" />
          </mxGeometry>
        </mxCell>
        <mxCell id="gU2KNp1fhgWOnNIcZfWo-2" value="" style="aspect=fixed;sketch=0;html=1;dashed=0;whitespace=wrap;verticalLabelPosition=bottom;verticalAlign=top;fillColor=#2875E2;strokeColor=#ffffff;points=[[0.005,0.63,0],[0.1,0.2,0],[0.9,0.2,0],[0.5,0,0],[0.995,0.63,0],[0.72,0.99,0],[0.5,1,0],[0.28,0.99,0]];shape=mxgraph.kubernetes.icon2;kubernetesLabel=1;prIcon=ing" parent="1" vertex="1">
          <mxGeometry x="505" y="554" width="50" height="48" as="geometry" />
        </mxCell>
        <mxCell id="gU2KNp1fhgWOnNIcZfWo-6" style="edgeStyle=orthogonalEdgeStyle;rounded=0;orthogonalLoop=1;jettySize=auto;html=1;" parent="1" source="gU2KNp1fhgWOnNIcZfWo-3" edge="1">
          <mxGeometry relative="1" as="geometry">
            <mxPoint x="530" y="172" as="targetPoint" />
          </mxGeometry>
        </mxCell>
        <mxCell id="gU2KNp1fhgWOnNIcZfWo-8" style="edgeStyle=orthogonalEdgeStyle;rounded=0;orthogonalLoop=1;jettySize=auto;html=1;" parent="1" source="gU2KNp1fhgWOnNIcZfWo-3" target="gU2KNp1fhgWOnNIcZfWo-4" edge="1">
          <mxGeometry relative="1" as="geometry" />
        </mxCell>
        <mxCell id="gU2KNp1fhgWOnNIcZfWo-3" value="" style="shape=image;verticalLabelPosition=bottom;labelBackgroundColor=default;verticalAlign=top;aspect=fixed;imageAspect=0;image=data:image/png,iVBORw0KGgoAAAANSUhEUgAAAMgAAADICAYAAACtWK6eAABLI0lEQVR4nOydB3hTVfvA3+ydNumiu9CWQoGyoSB7KSjIcCEuBNygn36KfvpX9HMAzg8cKDgZylQQKcrepcy27A6gk66kbfb+P+ek6SK5uTe5abp+z5MH2uaenCT3Ped93/MOJnTSSScu6RSQTjohoFNAOumEALa/J9BW4MsSYplsQTBfnihlsgVxAMCp+5MFAG5py7Nu1f1cra3IzvPTHMOZbEGE/f+JMiZHEAUA3Lo/WwGgWFueVQ4AGm1F9hV/zLGt0SkgTmDz5XJpzJhJ0tgx4wQhKQMF8sQU6p+VTa9X5F62mHVGgzIn22rS6fTKnEtWs85kVBVfNuuqDABQrq3ILiQahS9LCGayBUg4mXx5Yk/0K2FISncAkAhDU5IAQCwM7RMPwAik+j4NqqKLuvKsLFXJySM1eWl/GtXFRVTHaO8w/D2B1gKTLWDLkmbOknWb/Lg0duxkf8/HH2jLs04prm79WXF121qzXlHr7/m0Bjq8gLD4clFYv/nPBfV65HmOICjW3/NpDVhNWkXV1W3fl2eu/sSgzC3393z8SYcWkOBec+ZGpC5exhYEhfh7Lq0Rq0mrKTu/5pOyMys+spp1Bn/Pxx90SAHhyxLiYyeu/FYUmjLe33NpCxhURZcLD7z2ZG3BoXR/z6WlYfl7Ai1N2MCFz3aduHIbTxqV5O+5tBXYPGmIPGnWfLYwlKcuOnbMZjWb/T2nlqLD7CAsvlzcdeKKddLYsff6ey5tGZ0i53R+2vz7DMrcm/6eS0vQIQREENKnR/zkNX9xpVHd/D2X9oDFpK29sWfRrJr8tL3+nouvafcqljRm9KTEaev3sYVBYf6eS3uByeLw5InTHrMYaqs0ZWcz/D0fX9KuBSRs4MIX4iZ8voHB4nD9PZf2iDR27BSuNDZCVXAozWY12/w9H1/QblWsmDHLvgnu/cgz/p5HR0BdnH4g989H7rGadVp/z4Vu2p2AMNkCVvSYZd8E9Zi1wN9zcSCXMCEskAVRISyQ8JkQHMCCkAB7nKhYwMT/53OafhUmC0BFjQVqNFb8s0png6IKMxjMNrhxywxKjRVKqix+eT/OUBenH76+d9FUk6q4XZ3AtysB4UgipV0nrPhTHJk6yh+vnxDBhp7RHEiM5EBCBAeiQ1gQIfdtuJtCZYGCCgvkFJvgGnoUmeByoQksVp++rFOMtUU389Lmj9VVZF9v+Vf3De1GQLjiyOjEmdv28aRRiS3xemwmwKDuPOjXjQt9u3GhdxwHhLzWkT2AhOPiTSOczzfC+TwjnMkxgFrfMiaC1aStyt0xZ5q6NON4i7ygj2kXAsKTJcQlTl1/kCuN8mksVbicBeP78iG1Jw8GJvKB24Zioc/nGyDjihH2Z+kgp9i353xWk1aTlzZ/sqrg0BGfvlAL0OYFJKDb5HFdJ67YwuQIZb4YPzmGA3cNEsCIXnyIDW1DEkFAmdICp3MMsPu0Do5f9lmIlaH4xNKXy86s/NpXL9AStGkBCU6eMz9m3PJv6c6MDJIwYdYIIdw9WAhRIe1DKFyBbBgkKH+c0EJeKf07S+WFdV8VHFz8Au0DtxBtUkAYbD5EjViyPKT3o6/SOe7wZB7cP0IEo/rw6Ry2zZCZb4CtR7Ww55wOjDTKiqokfUfejkdmt0U3cJsTEK44MqbrlDXrRaEpI+gYT8xnwPThQrg3VQjdwjl0DOmWwgozqHVW7MotrjSDzujcgOZzGRARxAYeG4DLYUBcGAdYLeAHqKq14B1l8xENVNTQ4w4z1hbl3Niz8DF1aUabighuUwIS2G3ylNiJK35gcYReh40EiBjw6HgxPDBSBCI+vXedxQr1bteCCjM+vyiqtEBRpRmfZ3gDj8OAbl3YECZjQUQQC/8/McLuVkYCRSfofew8qYHv/1ZDMQ1nLsh4Lz294vWyMyu/pGWCLUCbEBAWXy6KGbvsM1n8lKe8HUsiYMATE8XwwCgRbW7ZsmoLdqeezTXAhZsmuFpkApsfAi+QsCTHcrDreVAiD6Jpsp+woGRoYXWaCkoV3guKpjxz9409i54yKHMJ8/FbA61eQGTdZ86MTF38KVcaFefNOHwOAx4YJYTHJohBJvYuBK1GY4X0KwZIv6KHMzlGWlZXXxAsZcLARB4MTODCyN58CA307n3rjFbYfgIJihqqNd6pXmg3KUlf9kbFxfVf2sxebqs+pNUKCF+WEB89Ztn/JJGpd3s71p0D+fDKzAAIknp+g1SrrbDvvA4bsKeuGb2dkl/oEc2Bif35cNcgIXSRef5Z6AxWWPO3GtbuU3t9Yq9X5GQVHHhtgbo0o1VGBbc6AWGyBbywQQtfDOu74G0mRyjyZqy4MDa8/kAADO7O8+h69N0fzdbDtmMaOHrJ4Be1yVf0j+fC9GFCGN+fDwKuZ6pmfqkJlm6qgTO53i8YVVe3flV0ZMlbFr2i2uvBaKRVCYi8+8zZ4amL3/E2HRapUwsmi2H2GAnwPHBMIWP6z3QtbDuuBYXKD0FNLYiIz4C7BwtgaqoQkmM8ywr486QWvtxRC5W13n1WFpO2sjR92X8rL67/zmrW6b0ajCZahYAIQvr0jB6xZKU4MtXrIgq9Yznw3qOBEBtGXTLO5Rlg3X4NHMxqFd9Ni9OvGwdmjxHDhP4CytciFfTDjdWw77z3n51ekXOpOH3pwpr83fu9HsxL/CogTLZAGDliyfshvecsAmB4ZUGyWQAL7pLA/LsklK89m2uAb3aq4Gxe27Qt6KZbFzbMv0sMdw4UUr52z1kd/PfXatDQEBxZc/PA5sIDi1/2Z8VHvwmIvPvM+yJHLvmYIwjyyjuFiApmwdsPB2KPDRWyrhuxakCHDt0eiQ9nw7N3S2BsX2o7SmGFGd76WYld3t5iNWlrS0+v+E9F5po1/qjN1eICYj8JX71aFNp3Eh3jTRrAh7fnBFIyNG+UmWDljlo4mNUha6FRplcsB16eKYV+3agtQKv+qoXVu9W0zAGpXTcPvPa4pjTjNC0DkqRFc9KDe82Z3e2en3bxpNHJdIz3wjQJ/HtWIHBY5ORcb7TBqr9U8Pbaasi/1TrPLlojFTVW2JGug4IKEwxM4JE+sR/UnQeJEWw4csEAZi99HWxBUEhw8kNPMBhsprrs7GGwtkxprhbZQVh8uTBm7LIfZfFTHqBjPPQFLZ8ngzuSyQcVnrish2WbaqCwslMwvEEqZMCL06UwfRh5D3xeqQkWfaOAW0p6PnttedaJ/F3zHzKqiwtoGZAAnwuIKHxI764TV+6kK5kpQs6C714MgnCSqay1WissWaeEQ9n+U6dwvFQkB5Ki0IMNK7bXwtUiz1ZApOpU1FjgcoEJLhaYQGfwz+EMei/LnpSRDmfRGa2w6GsFbY4Qq0mrubFn0X3V+Wm7aRnQBT4VEFnSzLtixyzb4u2Bn4O+XTmwfJ4cFz0gw7GLenhvQ7XX/nkq8DkMeGKSGKKDWTj6NiGCgz1sjVm5owZ+2qOhPHZCOBs2/ie0ye/Q6nw+z4hd0z5MfnIKeq8vzZDA/SPFpJ6PVNz3f62GtNM62uZQfGLpQl8GP/rMBglOnjM/bsLnvzJYHM+OsZsxMIELK58PggCR+ylbrQCf/14Dy7fUgraFV9hhyTx486FALBhIkJlOfAe5JWY44cHNPDyZd5tHSS5h4QO+KYOFMCiRCwey9LTmchCB7IqjFw1wucCIc2g4bOL1ls1iwLh+AqhEO2Ch9x4uhDR6xBS2MCyo9sbeNFoGbIZPBCQ4ec5TMeOWr6Ir02/6MCF8OFd+W2kcZxRXmeHZLyvhgJ88VGwmA0cKOyipMuP4rZ0ZOli3Tw2/7FPDrlOeraD3DhNC7zj7abdSbYGDmXoQ8BggFdo/5oggNnQNZcM/Z1v2oLOgwp6V2DOaQ0r1RcIk5jPgxBV6viNRaMpQtjAstPbG3l20DNgI2gUkqNece2PHLV9Pl/o2Y7gA/u9hGalEoWOX9PD0yiq4pfRfeIhSbcWHlcy6d//6j0r49aAGnwkUV1lALGAAi8nA6gZVFtwlhjCZ/QZcvrkGvvlLDb8d0oDJbIMhSfaNOq4LB37ao2rxsj9qnQ3+OqXDoSt9uroPWUnpygWZmAnHLtEmJIOZXKlNVXDwEC0D1kFrwrUofEjf6BFL1tM13ozhQnhrNrnWe1uOaOCjTTV0vbRX5BQboUe0/SZ5cpIYxvbl40jarmFsnJyVlW+AuZ9XUR63Z3SDtipqlMtyrpnhy+UwwOiHSqBIKD/dVgvXb5nhTRLfG9pp0TqydDM931tYvwXv6sqzLiuubdtMy4B0CgiTLRB2nbhyE10GOdo5yAgH0rc/2VINW4+1nnTna8WmegHB+RjNTvhTKB64Qd2pNqfRt/XcVAncPUQA18vMOEHKQUW1Ba/m/mTbcS1WdZc+Ka9X/1xx/ygR2MAGyzbTU5AxZuyyHzUVWacMytwbdIxHW65p1IglH3ClUd3pGAsZ5K/d776Kj85ohee/qmxVwgF4B3FuJZdXW+Bwth6Ht1AlOaZp8KWQx4SedcY5sj0crD/g2cn14O5cCBTTl3p88qoR5iyvgFKFe4/BA6PEcN8I6nFfzkALdNeJK3+kZTC6bBBR+JCUmDEf/kzHWH27crC3yp1BjoRj4deK29QLT0GvN2WIAB4cJcYpuYMSuVCrsXqUYirkMeDuIQ1f+NMrKuGL32txbvffZ3S44iFVpg8XQu9Y+05RWWOBG+VmCGnk7tYZrPDjHhX88A9193FqDy5880IwPDBSiKNy6fIwqXQ22J+ph3F9+SAREAvfyN58KKs2e3w+1BiOKCzOpC67oa3IzvR2LFoEJH7K6s0cURevDwIjg1jw1QtBIBUST6us2gKvfKeA8/n0fJFjU/jw9QtBMHmwENsKYTIWPtibmioEIQ8g/Qq1G5rHaerJ+m6XChepHpzEhcGJPJg5XAgPjhbhm8dMUv7m39lgoK/br4Y3f66GPnGc+oO6tfvU2Gj3hEfGiaBXLBe7aUf14ePYqyuFJq/TahFqvV1IBiXyINhNRuewngJceqiEhrx3UZcBqZWXN66ymXVe3SReC4is+4yJoSlPvuXtOAIuA355NRhCA4nNojKlBeZ9UYnPEujg7sEC+OhJucsCDiwmA5fAoUJzT9bDY+1FIib0F8AdvfjYPokKZsPRi3ooqyZ3E77xUIMn74d/1LhKSqCICcPrwm14XAb8ftwzVfNSgQlCpEy8KCBiQtnYtY5e78JNo9ceMSQku8/osJCEEaT6oteb0J8PBzL1XgsnkyMUM5hsharg0AmvxvFqFgAQ0uuRN70dA/HJfJlbHzpSq/7zk5KWyhpQV/rnjQcD6n8+fEEPC/5XCS+tqsI1oV7/QQHzv6j0aOzcYve7jju1w0FIABM4dfcVUqWyrtvH3p/ZcJ6SHMPFbRY8QaGywlu/VOPDVQdoF3x6ihTWvRaC1V5v0eht2OXtziYRcJnwv2fleMH0lqCkWYuZbIFXB9Ve7SB8WUJc5B3/97k3YyD+NV0KU4YQG2kOm8MT/d0VE/sLYOIA++teKTTCUyuqsPAVVFjwCXH+LTNYPXQIITXF4ckqrDDDzXIzPqfZnq6FNbtVsGxzDdwoIyfoWoMNDmbp8Ny+r9s9oO6mG9KdW7+w5BSZIMeLnfW5uyUQGdx0kZKJWXDvMBFosWB6p9I61C13NolUyMSq7j9ndV7VAUAGu15x7bSu6spVT8fwys0b1GuO101qJg8SwCPjiWN5jGag1SB3IBU2rFLoJnbFPUMEcN9IESz8uop04bcV21Ww+YgWnwnoTd67Xa8Vm+Fa8e02Blr5kQ3RJ44LUpHnq+59I4QwOKkhOhrZIGhHcpQK4roJIyHLLaUF5n9RBT+9EtzEydAcpDounCaBL/5QefV6Qb0eeVpx7fftnl7vnYAkzXrcm+tjQ1nw5uwAt89bvrmaduEAHDzX8P/UHnxcVK65AIzvx4d3H5XVPYcHe86RC+NAOjQdRq470A33yVbvzhDEfAY8c3dDqvLVQiPM/cyuWj42Xowjdz11HzsDzfm17xXw7aIQwhYSj46X4GzPIxc8P22XRKZO5ogjQ03q4nJPrvfYBpFGj76DLQiK9PR69MG8QyITcPMRtcfGpzsaC51EyMTppc15eEyDN4qszdDWeHmmtEkxPaT+oV0bPdb8rYZXv1eCgR6HYT1IXVu2Sen2eW88EIgL4HlDUNLM+z291uNXDoyfPMPTaxFPT5ZAXzcnykcu6GHpJt+1vLteZoa0Uw3C9+BoMQzr2XAqHS5j1dsRgL097S93fVgPHrYxHKzbp4JML20NsvxxQger04i/3zAZC5bMIRdu5IqA+Cke36ue7yAxYz1+0f7xXHhiEnH1kaJKM7zxo/sVxls+/70WHwg6+HieHKsV8+4Uw/rFIfXppelX9HCFhkOs1gSf09SLV1xl9vgsxVNW7VJj5wURw5L58NAoz0/aRaEp49l8uXtd3gkeCQgvMCGOK43q5sm16Et5x82KYLECvLJa4bItAJ1UqaywZH2DIAp4TJxS+tw9UggQ2T+eUoUZ/ruhdQRC0snTU8RNvFZLN9bQ4lCgyn9+VEKVitij98K9Uly9xlMkMaPHenKdRwISEDtmiifXIZCe7y5N89Ot1bQdBJLhULYBPvi1GkxOXvJwtg4e/biStnzq1kRVrbX+EHD7CU2LZyQ6UOttsHgNsbaAbFWykd3OCIgZO9mT6zwSybD+z77Klyf2onpdty5sWPKIzGmWnYMj2Tr4dJt3rj1PuFxogr9OaXF6LlI19p7Xw2fbauDXg1qPcjfaAlk3TPiwEamR//tD5ZfdwwFagBhgI6xtFhnEhhu3TJB3i/riyeJKA8oz16ykep1Hzu2UeVklbEFQONXrvn8pCPrFu/4AqtUWuP/DinZfD7cT5zAZAGtfDW7iGGlOVa0F7n233CP1+8JPQ8KN6uJblOZE9UX4gQkJngjH9GECQuFALFlX3SkcHRirDWDxD0ocNeGKICkLXphKvbwsQhwxZBTVaygLCE+e0JPqNUIeA16YJiV8ztELejhysbPSYUenqNKCo5WJeGiMGLp2oX7GzZclUr53KQuIJHzocKrXPDJORNjVCa0Yy2hKu+yk7fPjP2q4WU58FvP8PdR3EVHE0KFUr6EsIILQFEovEiBi4JL6RHy3S0VLDkAn7QODye5yJmJsXwGuokIFUWjKMKpzoSQgDDYfJBGpd1C5Zt4kCWFecn6pCffk6KSTxmRcM8Lu08QhRi/PJFbbm8PkCAOFIX0o1YWmJCCikJRBwADSbYgCRUyY6SbX+NNtNR6HlHfSvvnyTxWhi31AAg/6d6PWFUscMZTSLkJJQMQRQ8dQef68O8WEwYjncg2U01nbM2wmEEa3djRKFRbcH5KI5yh6tETh1O5hSl+HKGJoKtnnot1jxh3Eu8dXf7b8gWBrgsMCmDRQAJMGCHDpHnFdtLDJAnA+z4AzHHec0OKT5o7K93+r8X3kaqFFu0i/bhzS9QlEoSmUnEzUVKzQFNL2x30jXb8pxJkcA5yjMTuwrdG3Kxc2vxkK7z0qgxG9+PXCAXWCM7g7D7eu/vPdMNwkqKNSrbHCtqPEtsicseSKZyO40qhuXHFkBNnnkxYQQUifJLYgqAuZ5zIAYOpQ4t3jm50dd/eYdYcQ1rwcTKp1gFTIhI/myuGNBwKA0SparrY8P/yjJjw8HNFbgDUWskhiR48k+1zSowbEjJlK9rnj+vFx1Q5XdOTd495UAfznoUDK/vX7Ropg8f3UvDbtBbSLbCXYRZDdNnsM+YKe0uix95B9LunvSRQxdDTZ57qrkrdmd8fcPeQSJvx7lvO0hMoaC+w6pYWdGVqXlT/uHynGuTQdkZ/3qglriM28Q1hfZskdksih48i+LikjnckW8KUxY0j1MI+Qs2BIkmudOb/UhH3cHZGnJ0tAyG+6JiHV4bNttbCtWfnUMX148NoDgRAW2DQCYdG9Epj7GfXC120dhcoK/5zV4lKrzpBLWDC6Dx/3R3EHWxAUIQof0ldTmuG28iKpHUQaM3oyg8Eg1Qt4phvP1Y701lVHt6UQ8hi4UmNzFn2juE04EAezDfDkZ5W4D0hjUrrycBu3jsh2NwX83N17jQmIGTOLzPNICshY0i2biYxzoxlgx8mOKSADE7i4GFtj/srQwlmCHu23lBb4dtft6ujQJFqadrU5TucYoYAgRmt4Mh+CSBbPk8aOnUDmeW5HY7IFLFnSzPvIDDY4kUvYP/BQlhZqNB3Tp99cVQKc5+4+evmUE3WUbOPM9oi7XeSuQaQUHRCGpgzjyxK6unueWwGRJc24j8URBpN50TsHEk/OV+V72gKBTla26yQy426Wt69CEd7yxwkdEGUM3eXmHmxMcK85T7t7jlsBCeo+i3T1xNSerrf+yhoL7hnRUal2kggWLnef8RzvQd5De6ZaY4VjF1z3eEyO5TapmEmEPGnWXKQhET2HUED4soREcWQqKe9Vty5swuLT7iIz2zsFTkqbIrvEHQOcPIeoTGpHwF2T0juSyUUesAVBoYHd7iI01gkFJGzgopdJvVJdiU4iyJbsbK+czzeCRt90F5lxh6hJ+7TmdJGxmpQEdXDyasfOvDyQSdzqekJ/8qE5YYMW/Yvo7y4FhMWXB8riJz9K9oWG9nCtXlXUWHCX144M+kKbN9DncRjw5fNyp7FWKV05sOal2/vC5xSbaOnC1JbRGW1w8oprNWtQIo90NRKBvHuqOHzIEFd/d6kThfSa8yTZhpwiPgP6ExRkOHKhY+8eDr7frcKNNxsHcaL/fzRXDi9MM8OpqwacG5MYwXHZSnmlB/0N2yNHLxpgZG/nBrlYwMSq6RkCF3pjQvotWKQuzXjE2d9c7iBBvR6ZT3aygxKJdenT1zq2SuCgvMYKn7moxB4ZxIbpw0Uw8w6RS+HYdlRDW1/xts4pN/eUu3uyMQExY6az+XKnnlqnAiLrPvNenjSKdAUId/FBZCW5I7DtuBY++K2a8nVbjmjgAzd52h2Jm+UW7Bl1BZWYNaQphQ1a+JzTvzn7ZUivOYSGy+2Tca1eFZSbcLXCThrYdkwL8z6vgJtl7u0ypdoKi39QwEebOoWjOWfzXO8ifeOp5dAEJc16wVm7ttsERBw+ZKA4MpV05C6HBZAc51paT+V07h7OOJ9vgvs+qIA3f3Ldt+9SgRHufbcM9nZwD6ArThMEvXLZAMkUqp6wBUEhwb3m3GaH3CYgIf0WvERlkj2jOYS+4nOd6pVLkEG++4wOTrgoGn2l0IT7EHbiHHddx3rHUSsLFNJvwW3HGk3ubY44MiQwfspDVAZNiiKexMWbnQLSiW/Iv2XGXX9d4e7ebA5PEpUsjW7aJqGJmze03/xnGBQLOfQg2MY0eivuGNuRYDDsjUmRkWi2AvxzRud2pfM0kzY+nA33DBXiHoPXb5mxA6C9VqJ3xeVCEy7c4IyECOphOiH9FjxbW3jogOPnJiPIuk15kuqARJO4VtTxDgc/mS+DMSkN/vkHRorw4Z7Z4vrGjXMRbzW2L5+wemBCJLe+fzrUpRrM/azSr20MWhr02boSkB7R1NMCAmLH3s/my2VmvQI3LKn/ZiQxo4dxpVFxVAfs2sX1F5hX2rEEZFgPXhPhcJAY6VkjfpmYRVjTuDndozgwa4QQ1h/oOJUqiRotsVkAkUEsKK6ipsUE9Zozu+zMyq+hsYDIuk15zJMJiviuTXRvmtr7ErmEifMzJEImjqhlMQDQAl9UaQat3galSgtUq6m7ppNjPRMEOkmM8P8cmoN2uYQIDu61HhHMAkFd4liVygrl1RbQGmweh/XnlBAvwlIhk7KAyOKnPNpEQJhsAVueNJOScY5ICCfW8QpaSS5D71gOjE7h4xgdqZABeaVmLACFlWbQ1PVFR0LSK5YL0cEsCBQzcXSyUm3FWWz7z+twI393oC/b39Ro7YL9xAQxXLhpxPNvaUICmDCxvwCGJPFwX8HKWiuOQEb/VjT6jMICmTC4Oxcvst0j2bjT1fl8IxzM1ON2cBYSa5SzKOnGdO3CxnYKFYShKanCkD4J2orsXHyHS2NGT2JyhJQbwEnd1CJydUDIZQNhNCYd8DkMmJYqwBGzSFD/OavDfSeoZDSinWZQIhc39AwJYMHmIxpIO6112TN8f6Yenr3bglsX+wNkoP9Rl3F3vcwM96YK4bX7A3AdgD+O+75CI/qsHh4rxgKCPu9Pt9ZAYSX5RYPFtKcAjOsngJdmBOAYvrX71HincQX6Pk0WaGKLNUYq8MwFEtBt8oPaiuwP6gRk7J2eDBIXSryD5LvImIsIYsNHTwRiXXlnhuuoTE8Q8xkwfbgQZgwXwu7TOnj2yyqP1CWor6Shx48gCRNX8Pvt9VDYdESDsyObe4w0ehs8s7IS/vu4DHrH2g9Pd5/WwrdpKqy6OQOpF+89GojL+Tfn2EU9fPOX8xJJJosNpgwS4N7uaOVFK/QHv1XXZykeytbjh4jPwJ/F2tdC4HC2Hhdhq9HQG9kwJoUPC+4S49f+4W+Vx5HbaMfIuGbEDw4bYFJ/Aax4Vo53gNVpKiirdj7v/BIjJLlo29Yt3DOVMyB27KTSk8s/wOLVZ17WDY4gKJbqII+NF8GL053XearVWmHsYtft4NDqPHO4EMb3F8DxS3rYnq6FgnLPVZSUrhy4f6QIYkLY2N3592mdT7w5EgED5z1PHSqEq0UmHDbibAsX8hhgMttXN3e8+VAADlJszrZjGvjgN+IQE/QFSoQMqNUSv1e0wqIbefYYEVTUWHFutzddbdEugQRvfD8BnLxigPUH1C5vYG9J7cEDHsfejdgZqxYG4VKtzth5UgvvrKMe+4bIWtNHzubJ4qM8EQ5wUzyguJJYh0Kr85q/1bB2vxom9BfAq7MCsBpz4rIBLhca4UaZGasJzlozIzsiMoiN9da+8Tzo15ULV4pM8Mdxjc9rbql0Nth8RIsfo/vwYf5dEqznnr5mgOwbRuxVQXqxsxNwpFqiFa1rGBufHynVFvhpj3ceJxtejNwvBEhQ95zT40ffrhxcguiVWVJ8Wo/0fiTkxZUWbHc1h8mwu/Mjg9nQK4YDg5N4YLEALnI397NKvAv6EnfFLdDu6UpA4sI8V3dFEUNGsEUh1Kpdk8VCsukH0uf/ytDhB1qd+8dzITmGC6P7CCA2lAVMJgPXXWWxkN1igxq1FXuccktMeMfZlaHFPc7JGHR041Bj0Oo8IJGHb54BCTzoFs7GRj8y9jls+06C1BqbzW4bFFZYsECddXOA6Csyr5sg87p9Z+rbjYvnPWOYEAsvei9iAROrqshORPNG32WJwoL7B164YcSqsTNBao2wyJZbdIIkfGgqWxiS0t/TAWRi10a6J+oSWp0PXzDgR1sCrc5IzThJooxPayMz34gfbRmiHH1kg3mKIDSlH5MvT0zwdIAuBN6ajnSa24l/Uetc32uRwZ6fC/EkUfFMtiDIbfGsTjppq7Aot6ltgCuNSmJyJZHku4900kkHg80WyD3yYLVFYkJYON87IZyDPWHRoWwQcht0VGQDFVWasWGaW2rGBmkRhYMuXxEuZ+Hchm5hHAgOYGIPXuPiaAYzwM0yM6j1VhwlgOaN/vU3gSImdr/Hh3MgIogFwVIWdg87sFgBeyt1RhsOOrxWbIKLN02tqqkrGwBaX/AOjfSO5cC9w4Qwqg8ff0FQZ9TVaK1w45YZe8YccNkMHPAnEzNhbpDdhV1ebYG953Tw1yktXCn0z0338TwZ9Izh4vJJ6FFQbobiqoZ5MxkAcV04ECBk1Lcjq1ZbcOWPnRlap/V9fYVcwsSf9/h+fOhZd3iHFpySKjOUVVuanBkxGIAbLUmFTJg1UoSTk/RGG5y4rIddp3T4YNPsZ2cZ22LSFbM4wpiWfNGnp4jxSoG+QF/AZQPcM0SIuzIlRXFw6uqOdC2uhJF93YRXLHeI+QxI6cqFgYl2t/P610LxOcfGQxocRtGSbuVlm2vw2QqZMBmkc/ePR/Pm4TinVQuD4fotEz63QcLiqwxF9Jqz7hDCpIFCqNFYcJjIz3vVOKOUbE2CHtEcXLl+YAIXPp4vB6XKAr8e0sDWY1qPoyG8hW1Q5lYIQ1NaVEBkYhb87xkpbqbz/T9qnFREx7YqETDw6vXEBDFIRSz4+7QW3v+1Gi4VUA99UOtt+KTZcdqMdqKHx4rg/cdlsHCaFB9wbj+h9fkhGSL7Bvn5I8E9nWMPUvx2F+BDyTnjRPDidCk8d48ENhzUYCGvpincZEwKHx4ZJ8KFO9BC9M5aJd5xyUQQNOdKoQk/ft4LOLTnodEieHiMGJ6cJIFfD6px3/SWhm01aRUt/aJLN9XgoD/0xj94XAYvz5DiUJM9Z8lFzTYGrZiDu/Pwlj55sACYDCbsOqWBNbvVuL+GtwxN4kJJlb0y5H9+qobVaWqYO0kML00PgKcmS3C81/5MHS4gQFVUkDqiIAjEo4PrZWZ4/9cafHPNnSiGR8eJ4ImJEvi/nxWw97xnxSCQLTdxgACHx3SRseBcngGe/bISMmgsTl6lssJXO1Xw0141DmkZ6uKk3JdYTNpytl6Ze00cmTrRkwFqda6/XHcHmJn5JnhxlQKnjc68Q4jL1iOBQdvqxQITNjqRAYd2FrTaafRWrKsGCO2n6vF1IRspXXnA5dgzy5BQ/HFcS9vqKOAy4Iung3FIyPwvKvFpMrrh3l5bDV/8UYtXuAn9BfDAKBGodVa8U90sN+NTfqsVQKmx4t+LBUyQ1UU+x0ewcbxY7zguXmndxVrRBVJRPv+9FveHHJLEg33NhOPhMSL8WRtNNlDprfj5fC4DtzZjMQA7NKKCWdAnjotDgqpqLbiP+7ZjWo92aLIglXDdfg1+uIJLEDOL5ukpBmVuHltbkXXO0wFKCRJRYtxE+jrIKzXDx1tq8SMhgo13g+6RHFw6ctJAAf4ymoOMbKXairfjP05ocdfc8hr6V+KRvezCFyZjwXcvBsH8L6rqdyW08n+9U4UfaBVFOw26eZAePawnz2mXX2RgI0MVCRC67ujFli/no9LZsHCIBQz44V/BWM19/cdqsNlscN8IkdMMUYeRfaPcjIMSz+QYfSoUVIkmuNe8ydHRlmedZesUOac9HYDIbhBwqR/x55aYCVMoW5qJjZqxhMvZsPrFIJizvOK24EAkNNvTdfjRFggJYMLK54LwLhwXxgEOqxp+PaTFj7YIl+2bBvLaiqxTTE1pRqbVpPVonydKZBF7mKjSWuCw7WHWjYkIYsOnC+Q4GautgnY7tHM4UnORDdevjbeWDpa6Pi6vIChP6g518cmjeGRVycn9ngxQTmAER4e07eOVO3ryQMi7/YMfkMCDlc/JcX5CWwMJx/f/CsaC3hgyjXxaM87UcAeelr011hbl66tz8/AdUJOXtt2TQRQqYukMC/QiEMbPIOPbFUhI3n9M1qLz8ZaIIBbuN+IswJRKoefWCHpvrijz0AapKTiIZYJZ98NfngziLoPMcXLdFnHXxmtcPwG8MlPaYvPxhsRINlarXLXI6xfPB3YbXcvQvJs3GWqMwsMdpCZv1y5wCIhJXVypKk6nLCTuurR6UtmuNdA7luO2IAViWir5xvX+ok8cBwsHkRrCZhFXyGzNxLu5x9yVBXKGWVdVXFt4aC80rouluLbtF0lk6t1UBtKbbNjfz3RxL8WFtR4BiZCzsOu4VxwXukewcU2suDBOk3DotNNaeOvnapxK644NB9S4AEJLMKo3D7u/u3Zh43MJNO/GNpDFam8zodbbILfYBJcKTZBx1YADLZGq6MyWag5Ss+hskyfiM/Dn3bcrF3vLQgKYEBXCBomg6VwKK8z4rCinxH5+dD7PiM/ByNKNoHAh4IxV6pEOVVe3/uL4f/0drLy6bUf0iCVKJkdISbnOLTFC9yjnOqy/BSRQxISpqQK4e7CQVHVDh5pBpmxPr1hOi6WdPjVZgoMVXYGE3HF+0SeOCzPqfv/kZxXwzU4VTu9dNk8GPI5rQekXz4W1BIdxZGDUhZ5MHy6EYT35pHIxHHUNGr+/yhoL/H1Wh0N53EUlu7vHPDk2UFzd9pPj//WjW806fXVe2g55j1mPUxnsRpnZpYD0dFGKBepuXrTz+CLUIj6cDY9PEOPVk1fnkr1+ywRHLhjwYRdaZctxZKzz1/7gt2pY9ZcKVDorfLJAjgvONadvNx4O2/D2piLD32d0+MT6epkZuy2dheA7qkUitTYqmI0POUMCWTj/PDyIRSgcUPeZeYpEwMDRBPeNEEFooH1xqVZbIeOaAc7mGnD6dUWtBUdPNz87E/IYEBvKxjd6ZDALBsTzYHAPHo5KRg+0E366rcbljZ4U6XreN8uoh87rFDlZuorsa46fm4xeeXHdV1QFBG2NkwY6/xv6glzFG+mNNti3tAv8eVILvx3SYEHzlsHdufDoeHG9ga0zWGHTYS1sOaqhlB9hMAEOK0Es3VgDW94Kdfq85+4JwGqJu+rt3kJGCNFnjB6OcHJHPa3ukWx4abrrmoCfbq3BN2b2DervAamtD40W4R3DUYL21DUDVj/RYkTm3tQabHjODWHwanzPTB0qhPtHCnFYjJDg0LkHwc56tZi6ylh5cd2Kxj83ERB1acYpneJaukDePZXsgO4quPeK4cARJ2HtyH65UWbCtazQ43yeAYeRH7tkoJSkhAzq4ck8uHOgsH67rdVa4Ze9aiwYKoJ8ZTKgVfuvDC3cPeR2g5zLAfjfM3J47ssqyvp7TAgL552gFd5XdJGx4LOnXJ/Z7EjX4OheKoTLWTgkfWxfPozo1WCr7TqlxeHtdERCIEFHY6HHlMECl58tsmuInA85FANfrSatsuri+l8b/+62/ans9IqVcZO+JC0g7uqe9opzLiCIF1cp8NY8ZbAQ+sXz8AOh0lqxKpRXYt8ikaGFDFCpgIlPuPlcBg5UTIjg4p8dZF03YnUE6a5kcj7IsmJ7LYzoxXPqTkQr56qFQfCv7xT1iUlBUiaM7MXH6g6at5jPwKoeUikTIji4IqVYwMSF4Rzld+imRxQHPlkgc+na1RmtsHKHCnuv1v47BHt7bpbbDWaTxf4doDk7qoJ0C+fgSumNb8jKWgukndLB78c1uKmmL9h1ynX4TgpB6z/EZYrxYpUX1/1gNeuaxNvc9ukp89M2ROmqPmILgkjliFSprFBYYXJ5cj4A3/TOvT2VtQ0Bf327cbG3ZmAiDycoIWOzj5sPQKO34sC5M7lG2Hde57MvCc3zw99qYNk8udO/C3hM+Or5YPhmZy1sOKiGqlorDqIMC2TiVTYxmYffS1DduRC6Ac/nG+F0jm8Sxu4eIoA3Hgxo0o+9Oat2qvBKPXuMCO+4SVEcUh2ZLhcacWg/si+O+7kl9QA3EQBZ1NRGY9n5Ncua//I2AbGZ9VB2fvUXkcNe/4zsyBduuBYQtCuQKVbdUJ/JrjsjdQmtXuhfXqNgNJXeCkUV9gqAdOR7kGXveT1WI9Bu5wwWE+CFaVKcnLQjXYdLXubfMuNsOPSAOpUH7XiFPuq61TOag3NVxvdzHQWAQIK5rq6HyFd/qvAjWGpXV7rIWfWh+VBXAxgZ2RqDFfJKzJRzXnzJ0B6uc0SQ9kEle1JxZetvJnVxRfPfO91/qy6u/z580KJ3mRyhhMzgaDWZTHDjDErkUa4D6zDaL9Lom/eWD36tgeQYewSsK2RiFvagoUdJlRnbVMhwRe+H7kIKDIZdlUKG7IT+fLzzuqNMaYF31t5eqxbtkuhBtVWAvwiSMAmbN6HPnAoVF9d94ez3TgXErFfUVl3d9lNI70cWkhn81FXiyfSJ43hVKLm1oDfZ4PmvFPDLv4Pr1SUiIoLYcP9INnZCQJ1qda3IXr+3uMreL+PGLbPLpjcBdSs5MkaDpfa+JcgOQHYMsm+SY3iUgibNFsA911ty5/UVfdx0sM2gICDa8qzDmtIMp3lRLp3IlRfXrSIrIKVKKy5WHekkSQgxsjcfvk1rmVNnX4NurlfXKOCrF4IIdXxncFj2Jj29YskFByJV6cxKYnWJCh9tVFLKb2/NjE4hjnY4S6H9eMXFtd+5+pvLb1hXkX1JXZy+j+yLHCHIjusZw21SD6mtk3ndBAu/VmBPUFvhg1+r4Y8TbSOhiwwjCIJJz+UaSLv3zbqqMuXV339z9XfCu7Ysc/VtVr0rjrkp4TNlMH0rYWvgXJ4R5n1eBbeUrScD0hlIiP+9WoF7prQXUnvwQE6g4lJJZa64sO5Tq1nnUuckFJCa/N17TLqqfDIvdPKqAfvQXeHOs9IWuVpkwkJywYNT6JagVmuFRd8o4EBWy+e++5IJ/YjVq+YFKVxjM1RkrvmR6Blu9Z7KC+tc6meNsVgBn4a7AundUcFtNz/EFcgmeWpFJWw92rpaL6PvYvbSCkq6eFuAzSJebCtrLKT7Ilbnpv1h1isqiZ7jVkAqMtd8D2Aj9Yppp4l13BnDW3/+hCcYTAAfbqzB/Qn93dlXo7fC+78qYV6jCiztifF9+YS5On+dIq9KVlx0v/i7FRAkYbU3D6aRecHDFwy3NbZszLRUIfbdt1dOXTPCQ0vL4Zu/agk/B19gsgBsOqyBaUvK4ffj7ccYb869w4gX2T1nyb13s66qWFV4yG0tBlKupdqCgzvIPE9rsMGhbNcTlEtYMK6v+2SktgzaTdbsVsO0JWX4hvW1oCAjfONhNUx/twzX8KWraF5rBKnoQ3u4vn+u3zLBZZIFxmtvHiRVh4GUgFTnpf1J6lVxZ1biLW7qUN8a61w2wDtzAvwuiFUqK75h7367DL74owafYNNJebUFPtlSA/e8XQ7LN9e2S3WqOdOGEu8ev7u59xpTnb+LVIo5aYUn+eGDp/nyRBeZH0354+1Qwg64M94rgwIfxCMFS5nw0VwZrjqCeOHrKtw1t7UwvCcPJgwQwOBE7m2ld8igUFlwx9d/zuhcRki3NBKBveVCUjQHLwJ/ZWh9chjJ4wD89V4YDuVxhtEMcNdbpaQq4NsAdJmrEgKsZp3biZL+lmoKDqSRFZCtRzXw0gzn/dMRD40WwfIttWRfmhTdurBx0/nG4d1oF2lNAtK4WryYz8A22SuzXH9OUNfnG+3KZdWWVrdLdJHZSwk1/szvHymCd9cpYcdJeu2gKYOFLoUDse+clpRwIFQ3D+wnIxxAVsUCu852kOxzd6RrQWtwrQvfO0yEg83o4q6BfPjl1dvL2pzwczg2EWq9DScrvbteiQtfOAMtNO+sq4bM68ZWJxx8LuM24XDw2gMBtH6/LCbglhZE/HaIvJtdXXKS9L1M+l1oSjMOgg1IOdVrtDbYTZDogj7cuZPoaY344r0S+OAJ+W1xUUqVBQ5mt/4Dsh3pOljiREiQ4f3hxpap/O4J7z8WWC8cOcUm+GhjdX1UAfouhifT165gymABrojiissFRkoZnaqSk3+TfS5pAbGadRZ1SfpRss/f7ObgbMZw73YRPocBy+fJ4LEJziPykS7cmnrdEfFXhl1IHGw6rMaGd2vl8fEiGNvX7mw5n2+AJz6thC1HtbhlmoOBCTxcRMJb0O4x707irIuNh8nvHlaTVqkpzcgm+3xKlqK65OQxcWTqODLPvVZsxr3mhvV07k1Cu8jz90jgvV+pr5Lx4WxY9qSsST7A9VsmnPAjrqu71Dgwj8mwX5PbyhJ+GoOEpKTKgvPU92e23p1vRC8eLJreYDdtO6rFaQDIHrlzYIOXaWqqED9qNFbceerYJQP8SjH/HTHrDiGhw+eWwozTfsmiKjl5jMrrUxIQTUUW6R0E6ipruBIQxOTBIvhhj5pyJ1lkCDYWjv2ZOtwYZsNie/URncEGD44W4XIyUSEsiKhTBUoVZlj8vZJSYbKWxNfVUeige7P6Ym89LMMn2xP78+vzVxqDfofuAU9sKKQlPDGRWBVf87eaUqNPTclJSvcwJR1HU5JxksrzL9404V3EFVwO4F2EKj/+o6pvjLI6TQWvrlFiF6oDAY+BhWhIEq9eOKCux8c7c1yXwOnEPT/8o4avdzaof1w2wL9nBeA6YYALtZmwynP8kr4+ePXkFT184oHX8qExQgiTuV7D0YL3Zzq1KGVteRale5jSDmLWK2oMtUWXedKonmSvWbmjlnAXmTRQiAscnKTQ366s2grPf1WFKyA63Lhkymsi9mW23zCMluL7v9W4fsDSJ2W3uV5Xbq+Fo3XeQ6Taou+oVEF990Aq2/y7iBfP79JUVNtEW9WlGSeoXEDZihKFpKQIgpNJnYcA7hFnhdhQe5qoK3rHcrCQUGmtrFRbm6hm2ddN9R1eD2XpIbUHv0ncl85ohcXfK2DrsU4BoYMShb3kT88YTpNDzzF9+bgIHbKnkL2n9rAu2X8fC8RlnVyRX2rCzUmpoFPkZFRkrvmWyjWUBYQtkAcFdJ04nco1+bfMcP8okctj+0AxCywWGy7f4yloJTmTY8S53k9PkeLqHA5K0O9WVMH5/NZpe7RVtAYbdi4IuQApdSoWh8WAe4YKcYnUKx4WgBjdhwdPTSFuLbF8Sw3lIhjVeWlbam/sJe3iBao2CNh1uAtUr7lRZobNh4hz0p+YKMWlLL0hJY6DOyj16dqw8pzPs7sh8920auikAaQaIeN48iD3cXNWG8Dnf6jgvxuUOFDTQYqbogquQIb5v91EF9ircFL39Okqsi5SvYZyQJBOmXMGwKYDYFCKOly5Q4WLSbuqBoIM9o/myuDxTwnzV1wyuDsXVi0MbvK7dfvU8Pkfrfc8oTUSGcTCtoWjhBDafcmUR/3jhA4f1n32lBxXwlzm4TnOK7OkhHFqZgtQVq0caMozj1C9hvIOYjPrQV1MzZcM2Aaw4ULJRPSO48I8D0/YK2us9UUUTGaAt35WdgoHRe4ZIoCN/wmpFw690QZsFvkEntwSM8x4rxweXlaBz0aockcyD2beISJ8zvoDKlwvmSpWk7ZKV3HhKtXrPNJpeAFxXcWRqWOpXod0xj5xHMKDn34JPDh2UU+5+WK1xl56qEcMB/69RuFRtGtUMAuWPSnH6cHn8ow4CakjwOcyYOlcGcydJME2BNSVGH3uqyq4QjK/woHNBi5jy4iQS5jw5XNBhN5IZF++/kM1Vc8VRlV09B/FtW0bqV7nUayHqvTkXk+uQ3y8pYawXA6HBfDxfBlIhdRTD/8+q8cZdZ4cuN05gA+/vR6Cz04eHCWCP5eE4RWtvdO3Kwe2vx1aHzqC+HpnLcz9rBLKlVZ4dZYUfy4BIt+mgiIBdVeM7+PNNR7tTGBP+tvjyXWeCUjBoeNWk1bpybUFFRb4bpeK8Dnhcjb858GWOdBDBulL0yXw4Vw5LkLtIFDMhGfvpn6I2dZAam1wo4rtP/yjwuccCeEc2LA4GB4aI8bduRa4OZPwhicniXHRciLSTmm9yoGpuXlwlyfXeRwtWHvzIOmics35ZZ8GzripbD5xgADmjCXWR70lJIAJ3y4KgkfHO//yL95s/aEf3rLhoAa3jXAwe7QIXpouhR9fDoHYuhrEWoPVZ3k1g7tz4fmpxC7dW0ozfLTJ88hmQ21RnqE694Yn13osIDWFB1xWoyPD22urQakmVvJfmhngMzVnQDwXd391ZB8i/jypbVLjytHvoz2DbIY3flTioEKoa+Xw6Hhxfd+V09cM8MCHFTjYEH0XdKUpQF2S28fznbeUcGCxArz1UzWlSu3NUV7dusHTaz0WkOq8tDSrSetxMahbSgsscVJlvDFocsvmySApit5moI+ME8GqRcFN3IlLN1XDknXVuIOSg7YQPEgH6Lv4bNvtK/SXO2rh6ZVVONX3xekSWPFsELwwVQp3DvQ+3x/ZNCueld/W9bY53+6qhXP53n0P1flp2zy91mMBseiV2tqb5KqduOLoJQPuskSEgMuETxfIcb65t/A5DHj3kUD414yAJh1YjSYbHL1owCuaw1AsKDfhwgvu6BnNwQk9XUh0xm0J0Hu8Z6gA/m92AHz+lBwW3x/QJJDTFTszdLDvXNMwnOOX9fhcZO2rIfBYIzU00oN8+sZw2QCfzJe77H7lIDPfAD/v8a7ouaG26JK2Ivu8p9d79U4rLq1bFZgwZbY3Y3y6tRa3U+uf4PpLRB/k/56Rw7NfVkGt1vOtdngyD4dBNIfLYcDmN0PgUqOstAyS6tW8O8XYA2QyAzz3VaVfKxlOGsCHV+8LwOWVGvPAKBEcztbB6z82Pe1uznsbqnHxhai6Kv3fvBCMb2aH88JelK7ao1NsB2hhalxYwxWlCjP85yfPXLqNqby4brU313u1LKsKDh0266oKvBlDb7LBGz8p8QdCRI9oLnz+tByvkJ6yP1MPL39XhUNfthzRwOyl5ThdE+p2qsaelNMk+0v0j7cfqiGd/YGRDcIXJGHigDuks4fJfF/ZfmxfPnw0V36bcDgY1UfgtqWdWm/D9ogjaDRAxKwXjnO5BnjwwwqvhAPx5kMBMCaFOAhDZ7TC6z8oacjDt5kUV7d5bH+ApweFTaZgNdmksWPv8mYMrcGGPSn3DBERNp/vImNDv25c3A2XSuRvY26WW3BBN6RSIRVq23Et6I1W3COR0+jU+OMtNXheRPSO48DsMQ1Ga1ggC9btV+P4pPtGCLF3bEgSD0crb093H0XMZtoz9kb3EeCxc0rMOLSCDJ/Mbwg9P5Stg8c/qcSFDArKzbDnnA671tkshtubrqLGincNx45utQKs2lULS9bXYAHyhjcfDIAZbk7Koa5Vw1Eayhoprmxbr7iyab03Y3i9tFVeXL/arKsq8XacCzdNsHST+6MVtMqvfDbIq52kOb/s08C/vlXU/6yotZA6yU9t1iNPLGDC8LrfOXYWxJkccmrXM3dL4POng+DF6VJ4eWYArHiG2MPjICaE1STD8oNf7TezyWIv9nznQAFseCMUB3JGkyggvuZvFc41x5HRKypxpUhvQcIxc4R74dhyRA1/0lIyyGa4dWbFR96O4rWAWM06bcmJZa97Ow7UBbwt30zs2YI6IfnyOTkIefQJSeO8hfQr5FavPrG3R6xOTRXinWBIoxKZZPtV3NUseha9z2EkDGwuu+nnoKrL5Fs4VQKLHwjEnXYdXzSZPi3ITnn6f1Uw871yOOulJw9pBP83m5xw7DihgY820RM/V3Fh3dd6Ze4Vb8ehRTmuvLR+rbaMWr66KzYe1sLmI+5XLKQCfPdiEAQSVPqmwvVbZhy5CiTdu7g5afcGIXDsN8OT+TA4iQcCrv2mNZqAVDRsQjjbqVdnJomK+LmlZqjRNKhOjt3LWSNLd62THSDj2FsDGdllS+fKYPpw98KBbD66yhyZdVWlpenL36ZjLNqsxxt7Fz7pzblIY5ZuqoVdGe5zjXtGc3HBuJhQ712sepMNHvuk0q7/XnK/4g9K5OIgP6hbsbfUlZ5Bv3tpesPJ8Klr5NSFxjtFYwfB0B68+tchIqNRI1VH/4yD2Xr8ft5Z26C6ivgt0wpPKmTA188HwTgSjZOyrxvhxVUK2oJDCw689pRZr6ClKSZtn5ZemZtTkr7sRbrG+7+11bhCozsig9iw4bUQGJJEbmUkQqm2G+3l1e6XzsY3dPplPRy50CBUjdOL06+QU1FG9m7YjX49qIaMq/bx0A09hUTiUuNQkClDBPjAE6lK6P3069bw2bRE9ffYUBZsWBzi1pULdclPz3xZ5XEQYnOqrmz9sjp/905aBqNTQBDlmWu+r7ywbhVd4723oRqHf7hDwGPCF08Ht2iDnsbRr4ey7TV3larbl8DGguMKmbjBxawzWrENtP1Ew/ueNsy9gOw9r6+3PQRcJvz0SjB2qf7wr+AmnqNNFIqsecLABC78+PLtZWCdgYTjha8VtLWIUBenHy44uPgVWgarg/b9tvDoO8+qitMpx907w2YDHP6xi0TXIB4H4K3ZgdggpNI73BOigln1h2nQSCXa16zgW5nSTKod2IhevEbXWLBHqnGX1j5xPHzKT4RGb8Ph4A6CpSycfNS30e6x6bAaNznyFY9PEOGszgCRe5X3wg0jPI87BdMjHIbaotN5afMn28w6Wk9q6Y+PsJpBcWXTFn5Qz1iBPLE/HUMeyNTjUBNHphsRPaK5MGmAANfjIlvtmypMBgN6RHEgNJANeSVG+GW/fVXWGWzYi+Ug7bSWlD//+XskEBNql+pAsf3Gnjy46W5otdrqK8O7IqfEDFeLjLi4W+NyPJcKjHih2XjYN51ucVzVM0F4pyLTQexsrgGe+1JBm1qlU+Qcv/LbxHFWo4r2N+izLBgGmw/RI979Nrj3I0/RNeYTE0WwcBpxQr8DpKp8trXWp+2PxQIG/gAbr/Z7PgyrP83+17dVbldsIY8B+5eF40QxImo0FrjzzTLShmwXGQurbgqVFbdO8BWpPXi4GF8oyTq8O9I12FtloqmGBlKr8tIWTLboFT75on0XYWc1Q82NvTttFlOtJHrERDqE8Xy+CXcxHdXHfTQph8XAz0uO4cCpHANe3enGaLY/GnOtyIQNZPT7n/eq3YZpj+zFrz//KKkyw4rttdhucTx6xXJwGiqfy4RrxSbsjiaDWm/Dh53ehIkTgdTYV2ZK4bX7A0l7xrYc0cD7v9V4lJLrjKorW7+9/s9zD1uNKp8VM/Z5CKq6NCNdc+vMIUnMmPEsjpDc8k/A5UITnMszwLBkHqlqirGhbJg6VIh3lEstUJO3uMqCT4I3HtaQujnn3WnP2EOG6gcba3CnYPQeHQ8b9pjZF4RShZlSBUpfgWymT+fL4Y5e5ArboPf20cYaXEeXDqwmrabo+PvzSk588CFYyQbjeEaL9ZzlSCLlsWOWfS+NHUup6JwrkArx8XwZKbvEwYWbRvjvhmpcfaO1gGyZHtEcHFpOxr3sT0ICmDhamKhPeXNuKc3wxg9KyKKpLZtOkXMmP23+bIMyN4eWAd3QYkkMVqNKp7i2baPZUHtDEjF0AoPF8ergAqkQaad0eIfoFk7ObYX05BnDRRAgZODymM3VI3+A1KArRSafqUJ0gOyj2WNEsHyeHJKiyH9t6DNe9I0C8mgp2mezlJ1f/eGNv5+bY9aWV9EwICn80rWcK46MjBy55L+y+Clz6Rhv6lABTgwSkCxgDdjotcLafWrcs4Iub0p7ZPowITw+QQwxodRSh77dVQs/7lHTYoxryjP3FB5Y/Iq2Ipt04xu68Gtbf2nM6LHRY5Z/w5NGJXk7VmQQC2ceJkZSOwRRqi3ww99q3CizU1AamDxIgO2jxlHCZKiotsB/flbSkjhmMWkri48ueaXy4vpfvB7MQ/yaJ2qouXmj6uL61TawqUQhKcO9UbtUOhsOTWEwgFSIgwN7Pz0+DgpE5l5eqbnDFIxrDotpF4wPn5DBrBEiwq6yzth7TgcLv6nCOTfeUnV161e5Ox6ZoSml1pOGbvy6gzSGK47sEjFs8TJ50qzHvB0LGb3vzAm8rRsSGdQ6K2xP1+JQD6rVw9sqwVIm3DtMiJsOhQRQXzPLqi2wfHMNHMzy3tuqLk4/WHR0yQvaimzKhaZ9QasREAfi8CEDoscu/0ogT0z1Zhy0k8wZK4Jnpkgo2SaNycw3wO/HtbDnrL5dql+jevNwKPpoEudKrthwQA1f7VR5HU9l0lXlFh1Z8m/ltW3bvRqIZlqdgDgIG7jw+fBBi95ncoRelVhEq+PiBwJgXF9KxeibgHYVtDr+c06He6+3le65zkjpysFuWqRKuSv1SYQjfMXrXdYGxvLM7z4rSV/+ntWsa3XdjVqtgID97CQkMnXxx/KkWY97O9bABC4snCZt0jvEE6rVVjh2SQ8HsvQ4j4Fqke2WRsRnQEpXLgzrwYPx/b0vT1RYYcatz3ZR6CzrCnVx+oHCo0ue11VkX/Z6MB/RqgXEgTRm9MiYMct/4kqjunk71ug+PFz8jOzZiTuu3zJD+hU99tpktQKBEdcJRP8ELs4e7NeNnsqUCpUFVu9WwSYaAh6tJm1t4ZElz1ZdWu9VxZGWoE0ICILJFghjJ674nyx+ynw6xkMqxpOTxLQJioNbSgtuHXC10ITVD7Ti5vjo5D46hIVbScR3YWPHRI9oLsSF0VuFEgkGdoMf1xDW1CKLqjj975t7Fs03qouL6Jifr2kzAuIgKHnO7OiRS1YxOULiisckmdifD/eNFMEgN9XFvaWkyowzFvOxG9kGhRWW+jbJ6OcaTUNgIZ/LwNXleXXFGLgcBr7x2UzAAi0RMGgX7ObklZhg81EN/Jmuo8lBYTOVnV/9QfHRd9+lYbAWo80JCIInS4hNmLZ+O08S1ZeuMbuGsWHOOBHcNVDgsderPbD/vA5XfKezLrFZV1V8fc/Ch1QFh2gp7NGStEkBgTqVq+vk1b8ExI6dRee4yKi9a5AAZt0hpBR31JZBauHWoxp89kOmHjEVdIqcU3k75txnVBd7VYHTX7RZAQGclCVgRI9Y8nVw70ee8cX48eFsnJ04dagQN8RvTyCV7p+zOthzVudV+20i1MXpB/PSFtztq2SmlqBNC4iD4OQ5C2LGLfsGgOGzuzhCzsJdekf04rnthtRayS0x4frEh7L1HvcwJ0vFhXVfFh5cvNCnL9ICtAsBQci6z5wUN2nF7wxg+Ly0iVjAgIEJPNwdKbUHj3JAX0tRojDD+VwjbjNxJsfQYi7osvPfLSw++u6XLfJiPqbdCAjYw1RGJkxbn8bkCH3bu6356wrsZw+9Yzk4/ishgriTry+oqLHgHeJqkQku3jT560zGWrD/tWcrL63/rqVf2Fe0KwFB8GUJ3ROmrv+HK42K9ec8uGxkw9hdslHBbOymFfEZENeFAzw2QICYCREkakdB3VlEmdICFpv9YFJntGE3bFm1BfeHL6o0Nykc4Q+sJq0mL23+vaqCQx73rmyNtDsBQXDEkV2SZm3bz5VE9fT3XKiAhIrJYLS5wEiLSVuet2POZHVpxll/z4Vu2qWAIFh8uSh+8upd4sjUUf6eS3vGWFt0PefPOWMNytyb/p6LL2hfvstG2Mw6kyL3zw1ccWSAMDh5qL/n0x5RFafvytv1xCRjzc0yf8/FV7RbAcFYzZaa/LTdZkPtrYDYsVPa847Z0lRd2fp1/q65c6xGle9qmbYCOswNI4kZPbrrxJUb2IKgCH/PpS2DjPHi9GUvVGSu+cnfc2kJOoyAgD2tNzx20oo1kojUKf6eS1tEr8i5cGPPwof9UV3EX7RvFasZFqNKrbi8aYPVYioXdxkwxtvaXB2JigvrPrqetuBRo7q42N9zaUk61A7SGJ4sISpqxJKVATRVemyv6BQ5Z2/sWfikriI7099z8QcdVkAcBHabPL7LoEX/FYamDPP3XFoTRlXR1bLzq5d2FFvDFR1eQByIw4cMDu234JXAblNmAAM6rOqlLk7fW3lx/ReKa9v+8vdcWgOdAtIMNl8uC4yffE9gt8kzRRFDR7A4wmDvR7VZjKriy2adwmBUFV0y6xQ6q1lXolfmlNY9odqsUxQZVUXYZcoWyDlcSVQYAKAHcCWRAWx+UAKTI2DyZYl9mGwBly9P6AnA8Lxej2NmABp1ycljtTcPpCmubttkUhd73fO+PdEpIG7gyxLi+LLE3hxJZIRAlpgMAET1g0q1FVklNgCzQZF7wWrWmoyq4ktmvcInZwVMNhKYhGQGR8ATyBJ7AoCQL0sMZLIF8QSXWQzqogum2uJKvTLngrYi+5Iv5tZJJ510ADpu8nUnnZCgU0A66YSA/w8AAP//VTlzkUr0TqEAAAAASUVORK5CYII=;" parent="1" vertex="1">
          <mxGeometry x="473" y="266" width="114" height="114" as="geometry" />
        </mxCell>
        <mxCell id="gU2KNp1fhgWOnNIcZfWo-9" style="edgeStyle=orthogonalEdgeStyle;rounded=0;orthogonalLoop=1;jettySize=auto;html=1;" parent="1" source="gU2KNp1fhgWOnNIcZfWo-4" target="gU2KNp1fhgWOnNIcZfWo-2" edge="1">
          <mxGeometry relative="1" as="geometry" />
        </mxCell>
        <mxCell id="gU2KNp1fhgWOnNIcZfWo-4" value="" style="aspect=fixed;sketch=0;html=1;dashed=0;whitespace=wrap;verticalLabelPosition=bottom;verticalAlign=top;fillColor=#2875E2;strokeColor=#ffffff;points=[[0.005,0.63,0],[0.1,0.2,0],[0.9,0.2,0],[0.5,0,0],[0.995,0.63,0],[0.72,0.99,0],[0.5,1,0],[0.28,0.99,0]];shape=mxgraph.kubernetes.icon2;prIcon=secret" parent="1" vertex="1">
          <mxGeometry x="505" y="438" width="50" height="48" as="geometry" />
        </mxCell>
        <mxCell id="gU2KNp1fhgWOnNIcZfWo-7" value="ACME" style="text;html=1;align=center;verticalAlign=middle;whiteSpace=wrap;rounded=0;" parent="1" vertex="1">
          <mxGeometry x="530" y="209" width="60" height="30" as="geometry" />
        </mxCell>
        <mxCell id="gU2KNp1fhgWOnNIcZfWo-11" value="Solver to complete ACME challenge" style="text;html=1;align=center;verticalAlign=middle;whiteSpace=wrap;rounded=0;" parent="1" vertex="1">
          <mxGeometry x="611" y="292" width="218" height="30" as="geometry" />
        </mxCell>
        <mxCell id="gU2KNp1fhgWOnNIcZfWo-13" value="Provision" style="text;html=1;align=center;verticalAlign=middle;whiteSpace=wrap;rounded=0;" parent="1" vertex="1">
          <mxGeometry x="463" y="394" width="60" height="30" as="geometry" />
        </mxCell>
        <mxCell id="gU2KNp1fhgWOnNIcZfWo-14" value="&lt;div&gt;&lt;span style=&quot;background-color: initial;&quot;&gt;kubernetes.io/tls-acme: &quot;true&quot;&lt;/span&gt;&lt;br&gt;&lt;/div&gt;&lt;div&gt;certmanager.k8s.io/cluster-issuer: lets-encrypt&lt;/div&gt;" style="text;html=1;align=left;verticalAlign=middle;whiteSpace=wrap;rounded=0;" parent="1" vertex="1">
          <mxGeometry x="566" y="563" width="258" height="30" as="geometry" />
        </mxCell>
        <mxCell id="gU2KNp1fhgWOnNIcZfWo-18" style="edgeStyle=orthogonalEdgeStyle;rounded=0;orthogonalLoop=1;jettySize=auto;html=1;" parent="1" source="gU2KNp1fhgWOnNIcZfWo-15" target="gU2KNp1fhgWOnNIcZfWo-2" edge="1">
          <mxGeometry relative="1" as="geometry" />
        </mxCell>
        <mxCell id="gU2KNp1fhgWOnNIcZfWo-15" value="" style="shape=image;verticalLabelPosition=bottom;labelBackgroundColor=default;verticalAlign=top;aspect=fixed;imageAspect=0;image=data:image/svg+xml,PHN2ZyB4bWxucz0iaHR0cDovL3d3dy53My5vcmcvMjAwMC9zdmciIHZpZXdCb3g9IjAgMCAxMjggMTI4Ij48Y2lyY2xlIHI9IjYwLjk5OSIgY3k9IjY0LjIzNiIgY3g9IjY0LjE0OSIgZmlsbD0iI2ZmZiIvPjxwYXRoIGQ9Ik0xMDIuOTY2IDc1LjMyN2MwLTIxLjQzOS0xNy4zNzktMzguODE5LTM4LjgxNy0zOC44MTlzLTM4LjgxOCAxNy4zOC0zOC44MTggMzguODE5aDExLjA5YzAtMTUuMzE0IDEyLjQxNS0yNy43MjcgMjcuNzI3LTI3LjcyNyAxNS4zMTMgMCAyNy43MjcgMTIuNDEzIDI3LjcyNyAyNy43MjciIGZpbGwtb3BhY2l0eT0iLjEiLz48Y2lyY2xlIHI9IjIxLjA3MiIgY3k9IjcxLjk5OSIgY3g9IjY2LjkyMiIgZmlsbC1vcGFjaXR5PSIuMSIvPjxsaW5lYXJHcmFkaWVudCBncmFkaWVudFRyYW5zZm9ybT0ibWF0cml4KDgyIDAgMCA4MiAtMzIzNDEuNSAtMzk2NjAuMzEzKSIgeTI9IjQ4NC43MjMiIHgyPSIzOTUuMTkxIiB5MT0iNDg0LjE2OCIgeDE9IjM5NS4xOTEiIGdyYWRpZW50VW5pdHM9InVzZXJTcGFjZU9uVXNlIiBpZD0iY2hyb21lLW9yaWdpbmFsLWEiPjxzdG9wIHN0b3AtY29sb3I9IiM4MUI0RTAiIG9mZnNldD0iMCIvPjxzdG9wIHN0b3AtY29sb3I9IiMwQzVBOTQiIG9mZnNldD0iMSIvPjwvbGluZWFyR3JhZGllbnQ+PGNpcmNsZSByPSIyMi43MzYiIGN5PSI2NC4yMzUiIGN4PSI2NC4xNDkiIGZpbGw9InVybCgjY2hyb21lLW9yaWdpbmFsLWEpIi8+PGxpbmVhckdyYWRpZW50IGdyYWRpZW50VHJhbnNmb3JtPSJ0cmFuc2xhdGUoNjc1IDU5OS43NzUpIiB5Mj0iLTU0Ny4xODUiIHgyPSItNjA4LjkxIiB5MT0iLTU5Ny42NDgiIHgxPSItNjA4LjkxIiBncmFkaWVudFVuaXRzPSJ1c2VyU3BhY2VPblVzZSIgaWQ9ImNocm9tZS1vcmlnaW5hbC1iIj48c3RvcCBzdG9wLWNvbG9yPSIjRjA2QjU5IiBvZmZzZXQ9IjAiLz48c3RvcCBzdG9wLWNvbG9yPSIjREYyMjI3IiBvZmZzZXQ9IjEiLz48L2xpbmVhckdyYWRpZW50PjxwYXRoIGQ9Ik0xMTkuNjAyIDM2LjUwOEMxMDQuMzM2IDUuNzkyIDY3LjA2LTYuNzMyIDM2LjM0MyA4LjUzNEE2Mi4xMDUgNjIuMTA1IDAgMDAxMi41NzggMjkuM2wyNC45NTUgNDMuMjUzYy00LjU5Ny0xNC42MDYgMy41MjEtMzAuMTc0IDE4LjEyNy0zNC43N2EyNy42NzYgMjcuNjc2IDAgMDE3LjkzNS0xLjI3NCIgZmlsbD0idXJsKCNjaHJvbWUtb3JpZ2luYWwtYikiLz48bGluZWFyR3JhZGllbnQgZ3JhZGllbnRUcmFuc2Zvcm09InRyYW5zbGF0ZSg2NzUgNTk5Ljc3NSkiIHkyPSItNTMzLjUzNyIgeDI9Ii02MzIuMzI3IiB5MT0iLTQ5MS4zOTMiIHgxPSItNjU3LjgzNSIgZ3JhZGllbnRVbml0cz0idXNlclNwYWNlT25Vc2UiIGlkPSJjaHJvbWUtb3JpZ2luYWwtYyI+PHN0b3Agc3RvcC1jb2xvcj0iIzM4OEI0MSIgb2Zmc2V0PSIwIi8+PHN0b3Agc3RvcC1jb2xvcj0iIzRDQjc0OSIgb2Zmc2V0PSIxIi8+PC9saW5lYXJHcmFkaWVudD48cGF0aCBkPSJNMTIuNTc4IDI5LjNjLTE5LjEgMjguNDkyLTExLjQ4NiA2Ny4wNzEgMTcuMDA1IDg2LjE3MWE2Mi4xMzMgNjIuMTMzIDAgMDAyOS41NzUgMTAuMzE5bDI2LjA2My00NC4zNjNjLTkuNzQ1IDExLjgxMS0yNy4yMiAxMy40ODYtMzkuMDMyIDMuNzRhMjcuNzE3IDI3LjcxNyAwIDAxLTguNjU3LTEyLjYxMyIgZmlsbD0idXJsKCNjaHJvbWUtb3JpZ2luYWwtYykiLz48bGluZWFyR3JhZGllbnQgZ3JhZGllbnRUcmFuc2Zvcm09InRyYW5zbGF0ZSg2NzUgNTk5Ljc3NSkiIHkyPSItNTUyLjM0NSIgeDI9Ii01OTkuNTU3IiB5MT0iLTQ4Ni45MSIgeDE9Ii01NzIuMzg1IiBncmFkaWVudFVuaXRzPSJ1c2VyU3BhY2VPblVzZSIgaWQ9ImNocm9tZS1vcmlnaW5hbC1kIj48c3RvcCBzdG9wLWNvbG9yPSIjRTRCMDIyIiBvZmZzZXQ9IjAiLz48c3RvcCBzdG9wLWNvbG9yPSIjRkNEMjA5IiBvZmZzZXQ9Ii4zIi8+PC9saW5lYXJHcmFkaWVudD48cGF0aCBkPSJNNTkuMTU4IDEyNS43OTFjMzQuMjA0IDIuNTg1IDY0LjAyNy0yMy4wNDcgNjYuNjEzLTU3LjI1YTYyLjA5NyA2Mi4wOTcgMCAwMC02LjE3LTMyLjAzMUg2My41OTVjMTUuMzEyLjA3IDI3LjY3IDEyLjU0MSAyNy41OTggMjcuODU0YTI3LjcyNSAyNy43MjUgMCAwMS01Ljk3MiAxNy4wNjQiIGZpbGw9InVybCgjY2hyb21lLW9yaWdpbmFsLWQpIi8+PGxpbmVhckdyYWRpZW50IGdyYWRpZW50VHJhbnNmb3JtPSJ0cmFuc2xhdGUoNjc1IDU5OS43NzUpIiB5Mj0iLTU3My4yNDciIHgyPSItNjQ5LjM5MSIgeTE9Ii01MjguODg1IiB4MT0iLTY0OS4zOTEiIGdyYWRpZW50VW5pdHM9InVzZXJTcGFjZU9uVXNlIiBpZD0iY2hyb21lLW9yaWdpbmFsLWUiPjxzdG9wIHN0b3Atb3BhY2l0eT0iLjE1IiBvZmZzZXQ9IjAiLz48c3RvcCBzdG9wLW9wYWNpdHk9Ii4wNiIgb2Zmc2V0PSIuMyIvPjxzdG9wIHN0b3Atb3BhY2l0eT0iLjAzIiBvZmZzZXQ9IjEiLz48L2xpbmVhckdyYWRpZW50PjxwYXRoIGQ9Ik0xMi41NzggMjkuM2wyNC45NTUgNDMuMjUzYTI3LjcyNSAyNy43MjUgMCAwMTEuMTA3LTE4Ljg1NEwxMy42ODYgMjcuNjM2IiBmaWxsPSJ1cmwoI2Nocm9tZS1vcmlnaW5hbC1lKSIvPjxsaW5lYXJHcmFkaWVudCBncmFkaWVudFRyYW5zZm9ybT0idHJhbnNsYXRlKDY3NSA1OTkuNzc1KSIgeTI9Ii00ODMuNTA1IiB4Mj0iLTYxOC42NTciIHkxPSItNTE0LjU1OSIgeDE9Ii01ODguMTU4IiBncmFkaWVudFVuaXRzPSJ1c2VyU3BhY2VPblVzZSIgaWQ9ImNocm9tZS1vcmlnaW5hbC1mIj48c3RvcCBzdG9wLW9wYWNpdHk9Ii4xNSIgb2Zmc2V0PSIwIi8+PHN0b3Agc3RvcC1vcGFjaXR5PSIuMDYiIG9mZnNldD0iLjMiLz48c3RvcCBzdG9wLW9wYWNpdHk9Ii4wMyIgb2Zmc2V0PSIxIi8+PC9saW5lYXJHcmFkaWVudD48cGF0aCBkPSJNNTkuMTU4IDEyNS43OTFsMjYuMDYzLTQ0LjM2M2EyNy43MzEgMjcuNzMxIDAgMDEtMTYuMDgyIDkuNDI2bC0xMS4wOTEgMzQuOTM3IiBmaWxsPSJ1cmwoI2Nocm9tZS1vcmlnaW5hbC1mKSIvPjxsaW5lYXJHcmFkaWVudCBncmFkaWVudFRyYW5zZm9ybT0idHJhbnNsYXRlKDY3NSA1OTkuNzc1KSIgeTI9Ii01NDkuNDMxIiB4Mj0iLTU4NC4xNjMiIHkxPSItNTA1LjYyMSIgeDE9Ii01ODguNiIgZ3JhZGllbnRVbml0cz0idXNlclNwYWNlT25Vc2UiIGlkPSJjaHJvbWUtb3JpZ2luYWwtZyI+PHN0b3Agc3RvcC1vcGFjaXR5PSIuMTUiIG9mZnNldD0iMCIvPjxzdG9wIHN0b3Atb3BhY2l0eT0iLjA2IiBvZmZzZXQ9Ii4zIi8+PHN0b3Agc3RvcC1vcGFjaXR5PSIuMDMiIG9mZnNldD0iMSIvPjwvbGluZWFyR3JhZGllbnQ+PHBhdGggZD0iTTExOS42MDIgMzYuNTA4SDYzLjU5NWEyNy43MjcgMjcuNzI3IDAgMDEyMS42MjYgMTAuNTM3bDM1LjQ5MS04Ljg3MyIgZmlsbD0idXJsKCNjaHJvbWUtb3JpZ2luYWwtZykiLz48L3N2Zz4=;" parent="1" vertex="1">
          <mxGeometry x="202" y="538.0000122070312" width="80" height="80" as="geometry" />
        </mxCell>
        <mxCell id="gU2KNp1fhgWOnNIcZfWo-16" value="Mount" style="text;html=1;align=center;verticalAlign=middle;whiteSpace=wrap;rounded=0;" parent="1" vertex="1">
          <mxGeometry x="530" y="501" width="60" height="30" as="geometry" />
        </mxCell>
        <mxCell id="gU2KNp1fhgWOnNIcZfWo-19" value="HTTPS" style="text;html=1;align=center;verticalAlign=middle;whiteSpace=wrap;rounded=0;" parent="1" vertex="1">
          <mxGeometry x="350" y="548" width="60" height="30" as="geometry" />
        </mxCell>
        <mxCell id="L02cvIFetYffFMlMTAXK-1" value="" style="shape=image;verticalLabelPosition=bottom;labelBackgroundColor=default;verticalAlign=top;aspect=fixed;imageAspect=0;image=data:image/svg+xml,PHN2ZyB4bWxucz0iaHR0cDovL3d3dy53My5vcmcvMjAwMC9zdmciIHJvbGU9ImltZyIgdmlld0JveD0iMCAwIDI0IDI0IiBoZWlnaHQ9IjgwMHB4IiB3aWR0aD0iODAwcHgiIGZpbGw9IiMwMDAwMDAiPjx0aXRsZT5IYXJib3IgaWNvbjwvdGl0bGU+PHBhdGggZD0iTTEyLjA1NzMuMDAyMkM3LjQ1NS0uMDIwNyAzLjI0NTMgMi41OTEyIDEuMjIxOCA2LjcyNDgtLjgwMTYgMTAuODU4NC0uMjgyIDE1Ljc4NTIgMi41NTkxIDE5LjQwNTljMi44NDEgMy42MjA4IDcuNTAyNyA1LjI5NzQgMTEuOTk5IDQuMzE1MyA0LjQ5NjMtLjk4MiA4LjAzNDYtNC40NDk4IDkuMTA3MS04LjkyNTQuMDA2Mi0uMDI0OS4wMTMzLS4wNDk0LjAxOTItLjA3NDYuMjA5LS44OTI5LjMxNS0xLjgwNjkuMzE1Ni0yLjcyNCAwLS4wMzE3LS4wMDIyLS4wNjMtLjAwMjQtLjA5NDgtLjAwMTItLjEzNzMtLjAwOTUtLjI3MjYtLjAxNTItLjQwODgtLjAxOS0uMjY2OS4wMzk5LjI2NDUgMCAwIC4wMzk5LjI2NDUtLjAxOS0uMjY2OSAwIDB2LS4wMDAzYTExLjkzMTggMTEuOTMxOCAwIDAwLS4yMDQ1LTEuNzY2M2MtLjAzMzQtLjE3My0uMDY3Mi0uMzQ1OC0uMTA3OC0uNTE2NGExMS45MDk3IDExLjkwOTcgMCAwMC0uOTU0Ny0yLjYwMThjLS4wMDc3LS4wMTUxLS4wMTQxLS4wMzExLS4wMjE5LS4wNDZhMTIuMDM4MiAxMi4wMzgyIDAgMDAtMS4yODA1LTEuOTljLS4wNjk0LS4wODgtLjEzNjMtLjE3OC0uMjA4LS4yNjM4YTEyLjEwMDEgMTIuMTAwMSAwIDAwLTIuMDUzMy0xLjk0MTcgMTIuNDA1NiAxMi40MDU2IDAgMDAtLjMzMDUtLjIzNjIgMTEuOTk3OCAxMS45OTc4IDAgMDAtNi43NjM5LTIuMTI5em0uMjE0MyAyLjIxMDVhOS43ODE4IDkuNzgxOCAwIDAxNC45OTI2IDEuNTM3OGwtNS42ODMgNS45MTAzIDcuODI1NS00LjA1YTkuODQ5MiA5Ljg0OTIgMCAwMTEuMTU0NCAxLjY0NzVjLjAwNjYuMDEyLjAxMjMuMDI0NC4wMTg5LjAzNjVsLTguODQ0OCAyLjg0MjMgOS43OTk0LS4zMzM3YTkuNzI5NSA5LjcyOTUgMCAwMS4yMjQ2IDEuNTMwNWwtMTAuMTc4LS43MzA0IDkuOTg1IDMuNDY0MWMtLjk4IDQuNTAwNC00Ljk2MDMgNy43MTE5LTkuNTY2MiA3LjcxODItLjA4OTUgMC0uMTc4LS4wMDQzLS4yNjctLjAwNjdsLS4xMDI2LTEuMjU1NC00LjczODYtMi4wODgyLS4xNTk3IDEuODA1NWMuMTk4Mi4xMjM0LS4yMDY2LS4xMDg3IDAgMC0uMjA2Ni0uMTA4Ny4xOTgyLjEyMzQgMCAwYTkuNzg3IDkuNzg3IDAgMDEtNC41MjA5LTguMjQzN2MtLjAwMzgtNS41MTQxIDQuNTQ4NS05Ljk0MTYgMTAuMDYwNC05Ljc4NDZ6TTkuMTQzNCA1LjkwNTRhLjIwMS4yMDEgMCAwMC0uMTk0My4ydi4xNDY3TDYuODIgOC4zMzU3di42NTI1aC4zODM0djIuMjdINi44MnYxLjExMjVoLjYwODhsLS4xNDA4IDEuNTg5NiAzLjk0OCAxLjczOTYtLjI3MjQtMy4zMjkyaC41MTY3di0xLjExMjVoLS4zODMydi0yLjI3aC4zODMydi0uNjUyNUw5LjM1MDkgNi4yNTJ2LS4xNDY3YS4yMDEuMjAxIDAgMDAtLjIwNzUtLjJ6TTcuODE5NyA4Ljk4ODJoMi42NjA3djIuMjdoLS42MzEydi0uOTY5NWMwLS45MzItMS4zOTgtLjkzMi0xLjM5OCAwdi45Njk1aC0uNjMxNXptLS41ODEgNS41MjhsLS4wNjY1Ljc1MDYgNC4xNzg4IDEuODQxNC0uMDY2Mi0uODA5MnptLS4xMTU2IDEuMzA2NGwtLjA2NjIuNzUwNiA0LjQwOTIgMS45NDMxLS4wNjYyLS44MDl6bS0uMTE1NCAxLjMwNjVsLS4wNjY1Ljc1MDMgNC42NCAyLjA0NS0uMDY2LS44MDg4WiIvPjwvc3ZnPg==;" parent="1" vertex="1">
          <mxGeometry x="496" y="693" width="68" height="68" as="geometry" />
        </mxCell>
        <mxCell id="L02cvIFetYffFMlMTAXK-6" value="" style="shape=image;verticalLabelPosition=bottom;labelBackgroundColor=default;verticalAlign=top;aspect=fixed;imageAspect=0;image=data:image/svg+xml,PHN2ZyB4bWxuczp4bGluaz0iaHR0cDovL3d3dy53My5vcmcvMTk5OS94bGluayIgeG1sbnM9Imh0dHA6Ly93d3cudzMub3JnLzIwMDAvc3ZnIiBwcmVzZXJ2ZUFzcGVjdFJhdGlvPSJ4TWlkWU1pZCIgdmVyc2lvbj0iMS4xIiB2aWV3Qm94PSIwIC0yOC41IDI1NiAyNTYiIGhlaWdodD0iODAwcHgiIHdpZHRoPSI4MDBweCI+JiN4YTsJPGc+JiN4YTsJCTxnIHRyYW5zZm9ybT0idHJhbnNsYXRlKDEzOC44ODAxODIsIDAuMDAwMDAwKSI+JiN4YTsJCQk8cGF0aCBmaWxsPSIjRkZBNDAwIiBkPSJNODQuNTU0NTU4NCw2Ni42Nzk5NzM0IEw2OS43ODg1OTY5LDY2LjY3OTk3MzQgTDY5Ljc4ODU5NjksNTkuMDYzODQ1OSBDNjkuNzg4NTk2OSw1My4wMDIwMzAyIDY0LjgxNDc5OTQsNDguMDI4MjMyNiA1OC43NTI5ODM2LDQ4LjAyODIzMjYgQzUyLjY5MTE2NzgsNDguMDI4MjMyNiA0Ny43MTczNzAzLDUzLjAwMjAzMDIgNDcuNzE3MzcwMyw1OS4wNjM4NDU5IEw0Ny43MTczNzAzLDY2LjY3OTk3MzQgTDMyLjk1MTQwODgsNjYuNjc5OTczNCBMMzIuOTUxNDA4OCw1OS4wNjM4NDU5IEMzMi45NTE0MDg4LDQ0Ljc2NDE3OCA0NC42MDg3NDY4LDMzLjI2MjI3MTEgNTguNzUyOTgzNiwzMy4yNjIyNzExIEM3My4wNTI2NTE2LDMzLjI2MjI3MTEgODQuNTU0NTU4NCw0NC45MTk2MDkxIDg0LjU1NDU1ODQsNTkuMDYzODQ1OSBMODQuNTU0NTU4NCw2Ni42Nzk5NzM0IFoiPiYjeGE7JiN4YTs8L3BhdGg+JiN4YTsJCQk8cGF0aCBmaWxsPSIjMDAzQTcwIiBkPSJNOTAuNjE2Mzc0Miw2Ni42Nzk5NzM0IEwyNi44ODk1OTMsNjYuNjc5OTczNCBDMjQuMDkxODMxOSw2Ni42Nzk5NzM0IDIxLjkxNTc5NTUsNjguODU2MDA5OSAyMS45MTU3OTU1LDcxLjY1Mzc3MSBMMjEuOTE1Nzk1NSwxMTguNzQ5NDE3IEMyMS45MTU3OTU1LDEyMS41NDcxNzggMjQuMDkxODMxOSwxMjMuNzIzMjE0IDI2Ljg4OTU5MywxMjMuNzIzMjE0IEw5MC42MTYzNzQyLDEyMy43MjMyMTQgQzkzLjQxNDEzNTMsMTIzLjcyMzIxNCA5NS41OTAxNzE3LDEyMS41NDcxNzggOTUuNTkwMTcxNywxMTguNzQ5NDE3IEw5NS41OTAxNzE3LDcxLjY1Mzc3MSBDOTUuNDM0NzQwNSw2OC44NTYwMDk5IDkzLjI1ODcwNDEsNjYuNjc5OTczNCA5MC42MTYzNzQyLDY2LjY3OTk3MzQgWiBNNjEuODYxNjA3MSw5Ny42MTA3NzcgTDYxLjg2MTYwNzEsMTAzLjk4MzQ1NSBDNjEuODYxNjA3MSwxMDUuNjkzMTk4IDYwLjQ2MjcyNjUsMTA3LjI0NzUxIDU4LjU5NzU1MjQsMTA3LjI0NzUxIEM1Ni44ODc4MDk1LDEwNy4yNDc1MSA1NS4zMzM0OTc4LDEwNS44NDg2MjkgNTUuMzMzNDk3OCwxMDMuOTgzNDU1IEw1NS4zMzM0OTc4LDk3LjYxMDc3NyBDNTMuMzEyODkyNSw5Ni41MjI3NTg4IDUyLjA2OTQ0MzEsOTQuMzQ2NzIyMyA1Mi4wNjk0NDMxLDkxLjg1OTgyMzUgQzUyLjA2OTQ0MzEsODguMjg0OTA2NiA1NS4wMjI2MzU0LDg1LjMzMTcxNDMgNTguNTk3NTUyNCw4NS4zMzE3MTQzIEM2Mi4xNzI0Njk0LDg1LjMzMTcxNDMgNjUuMTI1NjYxNyw4OC4yODQ5MDY2IDY1LjEyNTY2MTcsOTEuODU5ODIzNSBDNjUuMjgxMDkyOSw5NC4zNDY3MjIzIDYzLjg4MjIxMjMsOTYuNTIyNzU4OCA2MS44NjE2MDcxLDk3LjYxMDc3NyBaIj4mI3hhOyYjeGE7PC9wYXRoPiYjeGE7CQkJPHBhdGggZmlsbD0iI0ZGQTQwMCIgZD0iTTIwLjM2MTQ4MzcsNTkuNjg1NTcwNiBMNC45NzM3OTc1NSw1OS42ODU1NzA2IEMyLjQ4Njg5ODc4LDU5LjY4NTU3MDYgMC40NjYyOTM1MjEsNTcuNjY0OTY1NCAwLjQ2NjI5MzUyMSw1NS4xNzgwNjY2IEMwLjQ2NjI5MzUyMSw1Mi42OTExNjc4IDIuNDg2ODk4NzgsNTAuNjcwNTYyNiA0Ljk3Mzc5NzU1LDUwLjY3MDU2MjYgTDIwLjM2MTQ4MzcsNTAuNjcwNTYyNiBDMjIuODQ4MzgyNSw1MC42NzA1NjI2IDI0Ljg2ODk4NzgsNTIuNjkxMTY3OCAyNC44Njg5ODc4LDU1LjE3ODA2NjYgQzI0Ljg2ODk4NzgsNTcuNjY0OTY1NCAyMi44NDgzODI1LDU5LjY4NTU3MDYgMjAuMzYxNDgzNyw1OS42ODU1NzA2IFoiPiYjeGE7JiN4YTs8L3BhdGg+JiN4YTsJCQk8cGF0aCBmaWxsPSIjRkZBNDAwIiBkPSJNMzEuMjQxNjY1OSwzNS40MzgzMDc2IEMzMC4zMDkwNzg4LDM1LjQzODMwNzYgMjkuMjIxMDYwNiwzNS4xMjc0NDUyIDI4LjQ0MzkwNDgsMzQuMzUwMjg5MyBMMTYuMzIwMjczMiwyNC40MDI2OTQyIEMxNC40NTUwOTkxLDIyLjg0ODM4MjUgMTQuMTQ0MjM2OCwyMC4wNTA2MjE0IDE1LjY5ODU0ODUsMTguMDMwMDE2MSBDMTcuMjUyODYwMywxNi4xNjQ4NDIgMjAuMDUwNjIxNCwxNS44NTM5Nzk3IDIyLjA3MTIyNjYsMTcuNDA4MjkxNCBMMzQuMTk0ODU4MiwyNy4zNTU4ODY1IEMzNi4wNjAwMzIzLDI4LjkxMDE5ODMgMzYuMzcwODk0NiwzMS43MDc5NTk0IDM0LjgxNjU4MjksMzMuNzI4NTY0NyBDMzMuNzI4NTY0NywzNC44MTY1ODI5IDMyLjQ4NTExNTMsMzUuNDM4MzA3NiAzMS4yNDE2NjU5LDM1LjQzODMwNzYgWiI+JiN4YTsmI3hhOzwvcGF0aD4mI3hhOwkJCTxwYXRoIGZpbGw9IiNGRkE0MDAiIGQ9Ik01OC43NTI5ODM2LDI0Ljg2ODk4NzggQzU2LjI2NjA4NDgsMjQuODY4OTg3OCA1NC4yNDU0Nzk2LDIyLjg0ODM4MjUgNTQuMjQ1NDc5NiwyMC4zNjE0ODM3IEw1NC4yNDU0Nzk2LDQuODE4MzY2MzggQzU0LjI0NTQ3OTYsMi4zMzE0Njc2IDU2LjI2NjA4NDgsMC4zMTA4NjIzNDcgNTguNzUyOTgzNiwwLjMxMDg2MjM0NyBDNjEuMjM5ODgyNCwwLjMxMDg2MjM0NyA2My4yNjA0ODc2LDIuMzMxNDY3NiA2My4yNjA0ODc2LDQuODE4MzY2MzggTDYzLjI2MDQ4NzYsMjAuMzYxNDgzNyBDNjMuMjYwNDg3NiwyMi44NDgzODI1IDYxLjIzOTg4MjQsMjQuODY4OTg3OCA1OC43NTI5ODM2LDI0Ljg2ODk4NzggWiI+JiN4YTsmI3hhOzwvcGF0aD4mI3hhOwkJCTxwYXRoIGZpbGw9IiNGRkE0MDAiIGQ9Ik04Ni4xMDg4NzAxLDM1LjQzODMwNzYgQzg0Ljg2NTQyMDcsMzUuNDM4MzA3NiA4My40NjY1NDAyLDM0LjgxNjU4MjkgODIuNjg5Mzg0MywzMy43Mjg1NjQ3IEM4MS4xMzUwNzI2LDMxLjg2MzM5MDYgODEuNDQ1OTM0OSwyOC45MTAxOTgzIDgzLjMxMTEwOSwyNy4zNTU4ODY1IEw5NS40MzQ3NDA1LDE3LjQwODI5MTQgQzk3LjI5OTkxNDYsMTUuODUzOTc5NyAxMDAuMjUzMTA3LDE2LjE2NDg0MiAxMDEuODA3NDE5LDE4LjAzMDAxNjEgQzEwMy4zNjE3MywxOS44OTUxOTAyIDEwMy4wNTA4NjgsMjIuODQ4MzgyNSAxMDEuMTg1Njk0LDI0LjQwMjY5NDIgTDg5LjA2MjA2MjQsMzQuMzUwMjg5MyBDODguMTI5NDc1NCwzNS4xMjc0NDUyIDg3LjE5Njg4ODMsMzUuNDM4MzA3NiA4Ni4xMDg4NzAxLDM1LjQzODMwNzYgWiI+JiN4YTsmI3hhOzwvcGF0aD4mI3hhOwkJCTxwYXRoIGZpbGw9IiNGRkE0MDAiIGQ9Ik0xMTIuMzc2NzM4LDU5LjY4NTU3MDYgTDk2LjgzMzYyMTEsNTkuNjg1NTcwNiBDOTQuMzQ2NzIyMyw1OS42ODU1NzA2IDkyLjMyNjExNzEsNTcuNjY0OTY1NCA5Mi4zMjYxMTcxLDU1LjE3ODA2NjYgQzkyLjMyNjExNzEsNTIuNjkxMTY3OCA5NC4zNDY3MjIzLDUwLjY3MDU2MjYgOTYuODMzNjIxMSw1MC42NzA1NjI2IEwxMTIuMzc2NzM4LDUwLjY3MDU2MjYgQzExNC44NjM2MzcsNTAuNjcwNTYyNiAxMTYuODg0MjQyLDUyLjY5MTE2NzggMTE2Ljg4NDI0Miw1NS4xNzgwNjY2IEMxMTYuODg0MjQyLDU3LjY2NDk2NTQgMTE0Ljg2MzYzNyw1OS42ODU1NzA2IDExMi4zNzY3MzgsNTkuNjg1NTcwNiBaIj4mI3hhOyYjeGE7PC9wYXRoPiYjeGE7CQk8L2c+JiN4YTsJCTxwYXRoIGZpbGw9IiMwMDNBNzAiIGQ9Ik0wLjM5MTAwNjU0NiwxMjMuMTAxNDg5IEwwLjM5MTAwNjU0Niw3Mi44OTcyMjA0IEwxMi41MTQ2MzgxLDcyLjg5NzIyMDQgTDEyLjUxNDYzODEsMTEyLjUzMjE3IEwzMS45NDM1MzQ4LDExMi41MzIxNyBMMzEuOTQzNTM0OCwxMjMuMTAxNDg5IEwwLjM5MTAwNjU0NiwxMjMuMTAxNDg5IFogTTcyLjA0NDc3NzUsMTA1Ljg0ODYyOSBMNzIuMDQ0Nzc3NSwxMDcuMjQ3NTEgTDcyLjA0NDc3NzUsMTA4LjY0NjM5IEw0Ni4zOTg2MzM5LDEwOC42NDYzOSBDNDYuNTU0MDY1MSwxMDkuNTc4OTc3IDQ2Ljg2NDkyNzQsMTEwLjUxMTU2NCA0Ny4zMzEyMjA5LDExMS4yODg3MiBDNDcuNzk3NTE0NSwxMTIuMDY1ODc2IDQ4LjQxOTIzOTIsMTEyLjg0MzAzMiA0OS4xOTYzOTUsMTEzLjMwOTMyNSBDNDkuOTczNTUwOSwxMTMuOTMxMDUgNTAuOTA2MTM3OSwxMTQuMzk3MzQ0IDUxLjgzODcyNSwxMTQuNzA4MjA2IEM1Mi43NzEzMTIsMTE1LjAxOTA2OCA1My44NTkzMzAyLDExNS4xNzQ1IDU0Ljc5MTkxNzMsMTE1LjE3NDUgQzU2LjY1NzA5MTQsMTE1LjE3NDUgNTguMjExNDAzMSwxMTQuODYzNjM3IDU5LjQ1NDg1MjUsMTE0LjA4NjQ4MSBDNjAuNjk4MzAxOSwxMTMuNDY0NzU3IDYxLjc4NjMyMDEsMTEyLjUzMjE3IDYyLjU2MzQ3NiwxMTEuNDQ0MTUxIEw3MC42NDU4OTcsMTE2LjU3MzM4IEM2OC45MzYxNTQxLDExOS4wNjAyNzkgNjYuNzYwMTE3NiwxMjAuNzcwMDIyIDY0LjExNzc4NzcsMTIyLjE2ODkwMiBDNjEuNDc1NDU3NywxMjMuNDEyMzUyIDU4LjIxMTQwMzEsMTI0LjE4OTUwOCA1NC42MzY0ODYxLDEyNC4xODk1MDggQzUxLjk5NDE1NjIsMTI0LjE4OTUwOCA0OS41MDcyNTc0LDEyMy43MjMyMTQgNDcuMTc1Nzg5OCwxMjIuOTQ2MDU4IEM0NC44NDQzMjIyLDEyMi4xNjg5MDIgNDIuODIzNzE2OSwxMjAuOTI1NDUzIDQwLjk1ODU0MjgsMTE5LjM3MTE0MSBDMzkuMjQ4Nzk5OSwxMTcuODE2ODMgMzcuODQ5OTE5NCwxMTUuNzk2MjI0IDM2Ljc2MTkwMTEsMTEzLjQ2NDc1NyBDMzUuNjczODgyOSwxMTEuMTMzMjg5IDM1LjIwNzU4OTQsMTA4LjQ5MDk1OSAzNS4yMDc1ODk0LDEwNS41Mzc3NjcgQzM1LjIwNzU4OTQsMTAyLjU4NDU3NSAzNS42NzM4ODI5LDEwMC4wOTc2NzYgMzYuNzYxOTAxMSw5Ny43NjYyMDgxIEMzNy42OTQ0ODgyLDk1LjQzNDc0MDUgMzkuMDkzMzY4OCw5My40MTQxMzUzIDQwLjgwMzExMTcsOTEuODU5ODIzNSBDNDIuNTEyODU0Niw5MC4zMDU1MTE4IDQ0LjUzMzQ1OTgsODguOTA2NjMxMiA0Ni44NjQ5Mjc0LDg4LjEyOTQ3NTQgQzQ5LjE5NjM5NSw4Ny4xOTY4ODgzIDUxLjY4MzI5MzgsODYuNzMwNTk0OCA1NC4zMjU2MjM4LDg2LjczMDU5NDggQzU2Ljk2Nzk1MzcsODYuNzMwNTk0OCA1OS4yOTk0MjEzLDg3LjE5Njg4ODMgNjEuNDc1NDU3Nyw4Ny45NzQwNDQyIEM2My42NTE0OTQyLDg4LjkwNjYzMTIgNjUuNTE2NjY4Miw5MC4xNTAwODA2IDY3LjA3MDk4LDkxLjcwNDM5MjQgQzY4LjYyNTI5MTcsOTMuNDE0MTM1MyA2OS44Njg3NDExLDk1LjQzNDc0MDUgNzAuNjQ1ODk3LDk3Ljc2NjIwODEgQzcxLjU3ODQ4NCwxMDAuMjUzMTA3IDcyLjA0NDc3NzUsMTAyLjg5NTQzNyA3Mi4wNDQ3Nzc1LDEwNS44NDg2MjkgWiBNNjEuMzIwMDI2NiwxMDEuNDk2NTU2IEM2MS4zMjAwMjY2LDk5LjYzMTM4MjIgNjAuNjk4MzAxOSw5OC4wNzcwNzA1IDU5LjYxMDI4MzcsOTYuNjc4MTg5OSBDNTguNTIyMjY1NCw5NS4yNzkzMDk0IDU2LjY1NzA5MTQsOTQuNjU3NTg0NyA1NC4zMjU2MjM4LDk0LjY1NzU4NDcgQzUzLjIzNzYwNTUsOTQuNjU3NTg0NyA1Mi4xNDk1ODczLDk0LjgxMzAxNTggNTEuMjE3MDAwMyw5NS4xMjM4NzgyIEM1MC4yODQ0MTMyLDk1LjQzNDc0MDUgNDkuNTA3MjU3NCw5NS45MDEwMzQxIDQ4LjczMDEwMTUsOTYuNTIyNzU4OCBDNDcuOTUyOTQ1Niw5Ny4xNDQ0ODM0IDQ3LjQ4NjY1MjEsOTcuOTIxNjM5MyA0Ny4wMjAzNTg2LDk4LjY5ODc5NTIgQzQ2LjU1NDA2NTEsOTkuNDc1OTUxIDQ2LjM5ODYzMzksMTAwLjQwODUzOCA0Ni4yNDMyMDI3LDEwMS4zNDExMjUgTDYxLjMyMDAyNjYsMTAxLjM0MTEyNSBMNjEuMzIwMDI2NiwxMDEuNDk2NTU2IFogTTkwLjY5NjUxODQsOTYuNTIyNzU4OCBMOTAuNjk2NTE4NCwxMTAuMDQ1MjcxIEM5MC42OTY1MTg0LDExMS43NTUwMTQgOTEuMDA3MzgwNywxMTIuOTk4NDYzIDkxLjYyOTEwNTQsMTEzLjc3NTYxOSBDOTIuMjUwODMwMSwxMTQuNTUyNzc1IDkzLjMzODg0ODMsMTE1LjAxOTA2OCA5NS4wNDg1OTEyLDExNS4wMTkwNjggQzk1LjY3MDMxNTksMTE1LjAxOTA2OCA5Ni4yOTIwNDA2LDExNS4wMTkwNjggOTYuOTEzNzY1MywxMTQuODYzNjM3IEM5Ny41MzU0OSwxMTQuNzA4MjA2IDk4LjE1NzIxNDcsMTE0LjU1Mjc3NSA5OC40NjgwNzcsMTE0LjM5NzM0NCBMOTguNjIzNTA4MiwxMjIuOTQ2MDU4IEM5Ny44NDYzNTIzLDEyMy4yNTY5MjEgOTYuNzU4MzM0MSwxMjMuNDEyMzUyIDk1LjUxNDg4NDcsMTIzLjcyMzIxNCBDOTQuMjcxNDM1MywxMjMuODc4NjQ1IDkzLjAyNzk4NiwxMjQuMDM0MDc2IDkxLjc4NDUzNjYsMTI0LjAzNDA3NiBDODkuNDUzMDY5LDEyNC4wMzQwNzYgODcuNDMyNDYzNywxMjMuNzIzMjE0IDg1Ljg3ODE1MiwxMjMuMTAxNDg5IEM4NC4zMjM4NDAyLDEyMi40Nzk3NjUgODIuOTI0OTU5NywxMjEuNzAyNjA5IDgxLjk5MjM3MjYsMTIwLjYxNDU5MSBDODEuMDU5Nzg1NiwxMTkuNTI2NTcyIDgwLjI4MjYyOTcsMTE4LjEyNzY5MiA3OS45NzE3Njc0LDExNi41NzMzOCBDNzkuNjYwOTA1LDExNS4wMTkwNjggNzkuMzUwMDQyNywxMTMuMzA5MzI1IDc5LjM1MDA0MjcsMTExLjQ0NDE1MSBMNzkuMzUwMDQyNyw5Ni41MjI3NTg4IEw3My41OTkwODkzLDk2LjUyMjc1ODggTDczLjU5OTA4OTMsODcuODE4NjEzIEw3OS4xOTQ2MTE1LDg3LjgxODYxMyBMNzkuMTk0NjExNSw3OC40OTI3NDI2IEw5MC42OTY1MTg0LDc4LjQ5Mjc0MjYgTDkwLjY5NjUxODQsODcuODE4NjEzIEw5OC45MzQzNzA2LDg3LjgxODYxMyBMOTguOTM0MzcwNiw5Ni41MjI3NTg4IEw5MC42OTY1MTg0LDk2LjUyMjc1ODggTDkwLjY5NjUxODQsOTYuNTIyNzU4OCBaIE0xMDkuNjU5MTIyLDcxLjk2NDYzMzMgQzEwNi4yMzk2MzYsNzEuOTY0NjMzMyAxMDMuNDQxODc1LDc0LjQ1MTUzMjEgMTAzLjQ0MTg3NSw3Ny43MTU1ODY4IEMxMDMuNDQxODc1LDgxLjEzNTA3MjYgMTA1Ljc3MzM0Miw4My4zMTExMDkgMTA5LjE5MjgyOCw4My4zMTExMDkgQzEwOS41MDM2OSw4My4zMTExMDkgMTA5LjgxNDU1Myw4My4zMTExMDkgMTA5Ljk2OTk4NCw4My4xNTU2Nzc4IEMxMDkuMzQ4MjU5LDg1LjY0MjU3NjYgMTA3LjAxNjc5Miw4Ny41MDc3NTA3IDEwNC42ODUzMjQsODcuODE4NjEzIEwxMDQuMjE5MDMsODcuODE4NjEzIEwxMDQuMjE5MDMsOTMuMjU4NzA0MSBMMTA0Ljg0MDc1NSw5My4yNTg3MDQxIEMxMDcuNjM4NTE2LDkyLjk0Nzg0MTggMTEwLjI4MDg0Niw5MS43MDQzOTI0IDExMi4zMDE0NTEsODkuODM5MjE4MyBDMTE0Ljk0Mzc4MSw4Ny4zNTIzMTk1IDExNi4zNDI2NjIsODMuNjIxOTcxMyAxMTYuMzQyNjYyLDc5LjI2OTg5ODUgQzExNi4zNDI2NjIsNzUuMDczMjU2OCAxMTMuNTQ0OTAxLDcxLjk2NDYzMzMgMTA5LjY1OTEyMiw3MS45NjQ2MzMzIFogTTEzNi41NDg3MTUsOTguMjMyNTAxNyBDMTM1LjYxNjEyOCw5Ny4yOTk5MTQ2IDEzNC41MjgxMDksOTYuNTIyNzU4OCAxMzMuMjg0NjYsOTUuOTAxMDM0MSBDMTMyLjA0MTIxMSw5NS4yNzkzMDk0IDEzMC42NDIzMyw5NC45Njg0NDcgMTI5LjI0MzQ0OSw5NC45Njg0NDcgQzEyOC4xNTU0MzEsOTQuOTY4NDQ3IDEyNy4yMjI4NDQsOTUuMTIzODc4MiAxMjYuMjkwMjU3LDk1LjU5MDE3MTcgQzEyNS4zNTc2Nyw5Ni4wNTY0NjUyIDEyNC44OTEzNzcsOTYuNjc4MTg5OSAxMjQuODkxMzc3LDk3Ljc2NjIwODEgQzEyNC44OTEzNzcsOTguNjk4Nzk1MiAxMjUuMzU3NjcsOTkuNDc1OTUxIDEyNi40NDU2ODgsOTkuOTQyMjQ0NiBDMTI3LjUzMzcwNiwxMDAuNDA4NTM4IDEyOS4wODgwMTgsMTAwLjg3NDgzMiAxMzEuNDE5NDg2LDEwMS4zNDExMjUgQzEzMi44MTgzNjYsMTAxLjY1MTk4NyAxMzQuMDYxODE2LDEwMS45NjI4NSAxMzUuNDYwNjk2LDEwMi41ODQ1NzUgQzEzNi44NTk1NzcsMTAzLjIwNjI5OSAxMzcuOTQ3NTk1LDEwMy44MjgwMjQgMTM5LjAzNTYxMywxMDQuNjA1MTggQzE0MC4xMjM2MzIsMTA1LjM4MjMzNiAxNDEuMDU2MjE5LDEwNi40NzAzNTQgMTQxLjY3Nzk0MywxMDcuNzEzODAzIEMxNDIuMjk5NjY4LDEwOC45NTcyNTMgMTQyLjYxMDUzLDExMC4zNTYxMzMgMTQyLjYxMDUzLDExMi4wNjU4NzYgQzE0Mi42MTA1MywxMTQuMjQxOTEzIDE0Mi4xNDQyMzcsMTE2LjEwNzA4NyAxNDEuMjExNjUsMTE3LjY2MTM5OCBDMTQwLjI3OTA2MywxMTkuMjE1NzEgMTM5LjE5MTA0NCwxMjAuNDU5MTU5IDEzNy42MzY3MzMsMTIxLjM5MTc0NyBDMTM2LjIzNzg1MiwxMjIuMzI0MzM0IDEzNC41MjgxMDksMTIyLjk0NjA1OCAxMzIuODE4MzY2LDEyMy40MTIzNTIgQzEzMC45NTMxOTIsMTIzLjg3ODY0NSAxMjkuMjQzNDQ5LDEyNC4wMzQwNzYgMTI3LjM3ODI3NSwxMjQuMDM0MDc2IEMxMjQuNDI1MDgzLDEyNC4wMzQwNzYgMTIxLjYyNzMyMiwxMjMuNTY3NzgzIDExOC45ODQ5OTIsMTIyLjYzNTE5NiBDMTE2LjE4NzIzMSwxMjEuNzAyNjA5IDExMy44NTU3NjMsMTIwLjMwMzcyOCAxMTIuMTQ2MDIsMTE4LjU5Mzk4NSBMMTE4LjY3NDEzLDExMS43NTUwMTQgQzExOS43NjIxNDgsMTEyLjg0MzAzMiAxMjEuMDA1NTk3LDExMy43NzU2MTkgMTIyLjU1OTkwOSwxMTQuNTUyNzc1IEMxMjQuMTE0MjIxLDExNS4zMjk5MzEgMTI1LjY2ODUzMiwxMTUuNjQwNzkzIDEyNy4zNzgyNzUsMTE1LjY0MDc5MyBDMTI4LjMxMDg2MiwxMTUuNjQwNzkzIDEyOS4yNDM0NDksMTE1LjQ4NTM2MiAxMzAuMTc2MDM2LDExNS4wMTkwNjggQzEzMS4xMDg2MjMsMTE0LjU1Mjc3NSAxMzEuNTc0OTE3LDExMy43NzU2MTkgMTMxLjU3NDkxNywxMTIuNjg3NjAxIEMxMzEuNTc0OTE3LDExMS41OTk1ODMgMTMwLjk1MzE5MiwxMTAuODIyNDI3IDEyOS44NjUxNzQsMTEwLjIwMDcwMiBDMTI4Ljc3NzE1NiwxMDkuNzM0NDA5IDEyNi45MTE5ODIsMTA5LjExMjY4NCAxMjQuNTgwNTE0LDEwOC42NDYzOSBDMTIzLjMzNzA2NSwxMDguMzM1NTI4IDEyMi4wOTM2MTUsMTA4LjAyNDY2NiAxMjAuODUwMTY2LDEwNy41NTgzNzIgQzExOS42MDY3MTcsMTA3LjA5MjA3OSAxMTguNTE4Njk4LDEwNi40NzAzNTQgMTE3LjU4NjExMSwxMDUuNjkzMTk4IEMxMTYuNjUzNTI0LDEwNC45MTYwNDIgMTE1Ljg3NjM2OCwxMDMuODI4MDI0IDExNS4yNTQ2NDQsMTAyLjc0MDAwNiBDMTE0LjYzMjkxOSwxMDEuNDk2NTU2IDExNC4zMjIwNTcsMTAwLjA5NzY3NiAxMTQuMzIyMDU3LDk4LjU0MzM2NCBDMTE0LjMyMjA1Nyw5Ni4zNjczMjc2IDExNC43ODgzNSw5NC42NTc1ODQ3IDExNS43MjA5MzcsOTMuMTAzMjcyOSBDMTE2LjY1MzUyNCw5MS41NDg5NjEyIDExNy43NDE1NDMsOTAuNDYwOTQzIDExOS4xNDA0MjMsODkuNTI4MzU1OSBDMTIwLjUzOTMwNCw4OC41OTU3Njg5IDEyMi4wOTM2MTUsODcuODE4NjEzIDEyMy44MDMzNTgsODcuNTA3NzUwNyBDMTI1LjUxMzEwMSw4Ny4wNDE0NTcyIDEyNy4yMjI4NDQsODYuODg2MDI2IDEyOC45MzI1ODcsODYuODg2MDI2IEMxMzEuNTc0OTE3LDg2Ljg4NjAyNiAxMzQuMjE3MjQ3LDg3LjM1MjMxOTUgMTM2LjcwNDE0Niw4OC4xMjk0NzU0IEMxMzkuMTkxMDQ0LDg4LjkwNjYzMTIgMTQxLjM2NzA4MSw5MC4xNTAwODA2IDE0My4wNzY4MjQsOTEuODU5ODIzNSBMMTM2LjU0ODcxNSw5OC4yMzI1MDE3IFogTTAuMzkxMDA2NTQ2LDE4MS4yMzI3NDggTDAuMzkxMDA2NTQ2LDEzMS4wMjg0NzkgTDM0LjExOTU3MTIsMTMxLjAyODQ3OSBMMzQuMTE5NTcxMiwxNDEuMjg2OTM3IEwxMi4wNDgzNDQ2LDE0MS4yODY5MzcgTDEyLjA0ODM0NDYsMTUwLjc2ODIzOCBMMzIuODc2MTIxOCwxNTAuNzY4MjM4IEwzMi44NzYxMjE4LDE2MC40MDQ5NzEgTDEyLjA0ODM0NDYsMTYwLjQwNDk3MSBMMTIuMDQ4MzQ0NiwxNzAuODE4ODYgTDM1LjM2MzAyMDYsMTcwLjgxODg2IEwzNS4zNjMwMjA2LDE4MS4yMzI3NDggTDAuMzkxMDA2NTQ2LDE4MS4yMzI3NDggWiBNNjUuOTgyOTYxOCwxODEuMjMyNzQ4IEw2NS45ODI5NjE4LDE2MS45NTkyODMgQzY1Ljk4Mjk2MTgsMTYxLjAyNjY5NiA2NS44Mjc1MzA2LDE2MC4wOTQxMDkgNjUuNjcyMDk5NCwxNTkuMTYxNTIyIEM2NS41MTY2NjgyLDE1OC4yMjg5MzUgNjUuMjA1ODA1OSwxNTcuNDUxNzc5IDY0Ljg5NDk0MzYsMTU2LjgzMDA1NCBDNjQuNTg0MDgxMiwxNTYuMjA4MzI5IDYzLjk2MjM1NjUsMTU1LjU4NjYwNSA2My4zNDA2MzE4LDE1NS4yNzU3NDIgQzYyLjcxODkwNzEsMTU0LjgwOTQ0OSA2MS43ODYzMjAxLDE1NC42NTQwMTggNjAuNjk4MzAxOSwxNTQuNjU0MDE4IEM1OS42MTAyODM3LDE1NC42NTQwMTggNTguNjc3Njk2NiwxNTQuODA5NDQ5IDU3LjkwMDU0MDcsMTU1LjI3NTc0MiBDNTcuMTIzMzg0OSwxNTUuNzQyMDM2IDU2LjUwMTY2MDIsMTU2LjIwODMyOSA1NS44Nzk5MzU1LDE1Ni45ODU0ODUgQzU1LjQxMzY0MiwxNTcuNzYyNjQxIDU0Ljk0NzM0ODQsMTU4LjUzOTc5NyA1NC42MzY0ODYxLDE1OS40NzIzODQgQzU0LjMyNTYyMzgsMTYwLjQwNDk3MSA1NC4xNzAxOTI2LDE2MS4zMzc1NTggNTQuMTcwMTkyNiwxNjIuMjcwMTQ1IEw1NC4xNzAxOTI2LDE4MS4zODgxNzkgTDQyLjUxMjg1NDYsMTgxLjM4ODE3OSBMNDIuNTEyODU0NiwxNDYuMTA1MzAzIEw1My43MDM4OTkxLDE0Ni4xMDUzMDMgTDUzLjcwMzg5OTEsMTUwLjkyMzY2OSBMNTMuODU5MzMwMiwxNTAuOTIzNjY5IEM1NC4zMjU2MjM4LDE1MC4xNDY1MTQgNTQuNzkxOTE3MywxNDkuMzY5MzU4IDU1LjU2OTA3MzEsMTQ4Ljc0NzYzMyBDNTYuMTkwNzk3OCwxNDcuOTcwNDc3IDU3LjEyMzM4NDksMTQ3LjM0ODc1MiA1Ny45MDA1NDA3LDE0Ni44ODI0NTkgQzU4LjgzMzEyNzgsMTQ2LjQxNjE2NSA1OS43NjU3MTQ4LDE0NS45NDk4NzIgNjAuODUzNzMzLDE0NS42MzkwMSBDNjEuOTQxNzUxMywxNDUuMzI4MTQ3IDYzLjAyOTc2OTUsMTQ1LjE3MjcxNiA2NC4yNzMyMTg5LDE0NS4xNzI3MTYgQzY2LjYwNDY4NjUsMTQ1LjE3MjcxNiA2OC42MjUyOTE3LDE0NS42MzkwMSA3MC4zMzUwMzQ2LDE0Ni40MTYxNjUgQzcyLjA0NDc3NzUsMTQ3LjE5MzMyMSA3My4yODgyMjY5LDE0OC40MzY3NzEgNzQuMzc2MjQ1MSwxNDkuNjgwMjIgQzc1LjQ2NDI2MzQsMTUxLjA3OTEwMSA3Ni4wODU5ODgsMTUyLjYzMzQxMiA3Ni41NTIyODE2LDE1NC4zNDMxNTUgQzc3LjAxODU3NTEsMTU2LjA1Mjg5OCA3Ny4xNzQwMDYzLDE1Ny43NjI2NDEgNzcuMTc0MDA2MywxNTkuNjI3ODE1IEw3Ny4xNzQwMDYzLDE4MS4zODgxNzkgTDY1Ljk4Mjk2MTgsMTgxLjM4ODE3OSBMNjUuOTgyOTYxOCwxODEuMjMyNzQ4IFogTTEwNy42Mzg1MTYsMTU3LjI5NjM0OCBDMTA3LjAxNjc5MiwxNTYuNTE5MTkyIDEwNi4wODQyMDUsMTU1Ljc0MjAzNiAxMDQuOTk2MTg2LDE1NS4yNzU3NDIgQzEwMy45MDgxNjgsMTU0LjgwOTQ0OSAxMDIuNjY0NzE5LDE1NC40OTg1ODYgMTAxLjU3NjcwMSwxNTQuNDk4NTg2IEMxMDAuMzMzMjUxLDE1NC40OTg1ODYgOTkuMjQ1MjMyOSwxNTQuODA5NDQ5IDk4LjMxMjY0NTksMTU1LjI3NTc0MiBDOTcuMzgwMDU4OCwxNTUuNzQyMDM2IDk2LjQ0NzQ3MTgsMTU2LjM2Mzc2MSA5NS44MjU3NDcxLDE1Ny4yOTYzNDggQzk1LjIwNDAyMjQsMTU4LjIyODkzNSA5NC41ODIyOTc3LDE1OS4wMDYwOTEgOTQuMTE2MDA0MiwxNjAuMDk0MTA5IEM5My42NDk3MTA3LDE2MS4xODIxMjcgOTMuNDk0Mjc5NSwxNjIuMjcwMTQ1IDkzLjQ5NDI3OTUsMTYzLjUxMzU5NSBDOTMuNDk0Mjc5NSwxNjQuNzU3MDQ0IDkzLjY0OTcxMDcsMTY1Ljg0NTA2MiA5NC4xMTYwMDQyLDE2Ni45MzMwOCBDOTQuNDI2ODY2NSwxNjguMDIxMDk5IDk1LjA0ODU5MTIsMTY4Ljk1MzY4NiA5NS44MjU3NDcxLDE2OS43MzA4NDEgQzk2LjYwMjkwMywxNzAuNTA3OTk3IDk3LjM4MDA1ODgsMTcxLjI4NTE1MyA5OC40NjgwNzcsMTcxLjc1MTQ0NyBDOTkuNTU2MDk1MiwxNzIuMjE3NzQgMTAwLjY0NDExMywxNzIuNTI4NjAzIDEwMS44ODc1NjMsMTcyLjUyODYwMyBDMTAzLjEzMTAxMiwxNzIuNTI4NjAzIDEwNC4yMTkwMywxNzIuMzczMTcxIDEwNS40NjI0OCwxNzEuOTA2ODc4IEMxMDYuNTUwNDk4LDE3MS40NDA1ODQgMTA3LjQ4MzA4NSwxNzAuODE4ODYgMTA4LjI2MDI0MSwxNjkuODg2MjczIEwxMTQuNjMyOTE5LDE3Ny44MTMyNjIgQzExMy4yMzQwMzksMTc5LjIxMjE0MyAxMTEuMjEzNDMzLDE4MC4zMDAxNjEgMTA5LjAzNzM5NywxODEuMDc3MzE3IEMxMDYuNzA1OTI5LDE4MS44NTQ0NzMgMTA0LjIxOTAzLDE4Mi4zMjA3NjcgMTAxLjczMjEzMiwxODIuMzIwNzY3IEM5OC45MzQzNzA2LDE4Mi4zMjA3NjcgOTYuMjkyMDQwNiwxODEuODU0NDczIDkzLjk2MDU3MywxODEuMDc3MzE3IEM5MS40NzM2NzQyLDE4MC4zMDAxNjEgODkuNDUzMDY5LDE3OS4wNTY3MTIgODcuNTg3ODk0OSwxNzcuMzQ2OTY5IEM4NS44NzgxNTIsMTc1Ljc5MjY1NyA4NC40NzkyNzE0LDE3My43NzIwNTIgODMuMzkxMjUzMiwxNzEuNDQwNTg0IEM4Mi4zMDMyMzUsMTY5LjEwOTExNyA4MS44MzY5NDE1LDE2Ni40NjY3ODcgODEuODM2OTQxNSwxNjMuNTEzNTk1IEM4MS44MzY5NDE1LDE2MC41NjA0MDIgODIuMzAzMjM1LDE1OC4wNzM1MDMgODMuMzkxMjUzMiwxNTUuNzQyMDM2IEM4NC40NzkyNzE0LDE1My40MTA1NjggODUuODc4MTUyLDE1MS4zODk5NjMgODcuNTg3ODk0OSwxNDkuODM1NjUxIEM4OS4yOTc2Mzc4LDE0OC4yODEzNCA5MS40NzM2NzQyLDE0Ni44ODI0NTkgOTMuOTYwNTczLDE0Ni4xMDUzMDMgQzk2LjQ0NzQ3MTgsMTQ1LjE3MjcxNiA5OC45MzQzNzA2LDE0NC44NjE4NTQgMTAxLjczMjEzMiwxNDQuODYxODU0IEMxMDIuOTc1NTgxLDE0NC44NjE4NTQgMTA0LjIxOTAzLDE0NS4wMTcyODUgMTA1LjQ2MjQ4LDE0NS4xNzI3MTYgQzEwNi43MDU5MjksMTQ1LjQ4MzU3OCAxMDcuOTQ5Mzc5LDE0NS43OTQ0NDEgMTA5LjAzNzM5NywxNDYuMTA1MzAzIEMxMTAuMTI1NDE1LDE0Ni41NzE1OTcgMTExLjIxMzQzMywxNDcuMDM3ODkgMTEyLjMwMTQ1MSwxNDcuNjU5NjE1IEMxMTMuMjM0MDM5LDE0OC4yODEzNCAxMTQuMTY2NjI2LDE0OC45MDMwNjQgMTE0Ljc4ODM1LDE0OS42ODAyMiBMMTA3LjYzODUxNiwxNTcuMjk2MzQ4IFogTTE0MS41MjI1MTIsMTU1LjU4NjYwNSBDMTQxLjA1NjIxOSwxNTUuNDMxMTc0IDE0MC40MzQ0OTQsMTU1LjI3NTc0MiAxMzkuOTY4MiwxNTUuMjc1NzQyIEwxMzguNTY5MzIsMTU1LjI3NTc0MiBDMTM3LjAxNTAwOCwxNTUuMjc1NzQyIDEzNS43NzE1NTksMTU1LjU4NjYwNSAxMzQuNjgzNTQsMTU2LjA1Mjg5OCBDMTMzLjU5NTUyMiwxNTYuNjc0NjIzIDEzMi44MTgzNjYsMTU3LjI5NjM0OCAxMzIuMTk2NjQyLDE1OC4wNzM1MDMgQzEzMS41NzQ5MTcsMTU4Ljg1MDY1OSAxMzEuMTA4NjIzLDE1OS43ODMyNDYgMTMwLjc5Nzc2MSwxNjAuNzE1ODMzIEMxMzAuNDg2ODk5LDE2MS42NDg0MiAxMzAuMzMxNDY4LDE2Mi40MjU1NzYgMTMwLjMzMTQ2OCwxNjMuMjAyNzMyIEwxMzAuMzMxNDY4LDE4MS4yMzI3NDggTDExOC42NzQxMywxODEuMjMyNzQ4IEwxMTguNjc0MTMsMTQ1Ljk0OTg3MiBMMTI5Ljg2NTE3NCwxNDUuOTQ5ODcyIEwxMjkuODY1MTc0LDE1MS4wNzkxMDEgTDEzMC4wMjA2MDUsMTUxLjA3OTEwMSBDMTMwLjk1MzE5MiwxNDkuMjEzOTI3IDEzMi4xOTY2NDIsMTQ3LjgxNTA0NiAxMzMuOTA2Mzg1LDE0Ni43MjcwMjggQzEzNS42MTYxMjgsMTQ1LjYzOTAxIDEzNy40ODEzMDIsMTQ1LjAxNzI4NSAxMzkuNjU3MzM4LDE0NS4wMTcyODUgTDE0MS4wNTYyMTksMTQ1LjAxNzI4NSBDMTQxLjUyMjUxMiwxNDUuMDE3Mjg1IDE0MS44MzMzNzQsMTQ1LjE3MjcxNiAxNDIuMTQ0MjM3LDE0NS4xNzI3MTYgTDE0MS41MjI1MTIsMTU1LjU4NjYwNSBaIE0xNjguODc4Mzk5LDE4Ni41MTc0MDggQzE2OC4xMDEyNDMsMTg4LjM4MjU4MiAxNjcuMzI0MDg3LDE4OS45MzY4OTQgMTY2LjU0NjkzMSwxOTEuNDkxMjA2IEMxNjUuNjE0MzQ0LDE5Mi44OTAwODYgMTY0LjY4MTc1NywxOTQuMTMzNTM2IDE2My40MzgzMDgsMTk1LjIyMTU1NCBDMTYyLjE5NDg1OCwxOTYuMzA5NTcyIDE2MC43OTU5NzgsMTk2LjkzMTI5NyAxNTkuMjQxNjY2LDE5Ny41NTMwMjIgQzE1Ny42ODczNTQsMTk4LjAxOTMxNSAxNTUuNjY2NzQ5LDE5OC4zMzAxNzcgMTUzLjQ5MDcxMiwxOTguMzMwMTc3IEMxNTIuNDAyNjk0LDE5OC4zMzAxNzcgMTUxLjMxNDY3NiwxOTguMzMwMTc3IDE1MC4wNzEyMjcsMTk4LjE3NDc0NiBDMTQ4Ljk4MzIwOCwxOTguMDE5MzE1IDE0Ny44OTUxOSwxOTcuODYzODg0IDE0Ny4xMTgwMzQsMTk3LjU1MzAyMiBMMTQ4LjM2MTQ4NCwxODcuNzYwODU4IEMxNDguOTgzMjA4LDE4Ny45MTYyODkgMTQ5LjYwNDkzMywxODguMDcxNzIgMTUwLjIyNjY1OCwxODguMjI3MTUxIEMxNTAuODQ4MzgzLDE4OC4zODI1ODIgMTUxLjQ3MDEwNywxODguMzgyNTgyIDE1Mi4wOTE4MzIsMTg4LjM4MjU4MiBDMTUzLjk1NzAwNiwxODguMzgyNTgyIDE1NS4yMDA0NTUsMTg3LjkxNjI4OSAxNTUuOTc3NjExLDE4Ny4xMzkxMzMgQzE1Ni43NTQ3NjcsMTg2LjM2MTk3NyAxNTcuNTMxOTIzLDE4NS4xMTg1MjggMTU3Ljk5ODIxNiwxODMuNTY0MjE2IEwxNTkuMDg2MjM1LDE4MC42MTEwMjQgTDE0NC4zMjAyNzMsMTQ1Ljk0OTg3MiBMMTU3LjIyMTA2MSwxNDUuOTQ5ODcyIEwxNjUuMTQ4MDUsMTY4LjY0MjgyMyBMMTY1LjMwMzQ4MiwxNjguNjQyODIzIEwxNzIuMjk3ODg0LDE0NS45NDk4NzIgTDE4NC41NzY5NDcsMTQ1Ljk0OTg3MiBMMTY4Ljg3ODM5OSwxODYuNTE3NDA4IFogTTIyNy4wMDk2NTgsMTYzLjUxMzU5NSBDMjI3LjAwOTY1OCwxNjYuMDAwNDkzIDIyNi42OTg3OTUsMTY4LjMzMTk2MSAyMjUuOTIxNjM5LDE3MC42NjM0MjkgQzIyNS4xNDQ0ODMsMTcyLjk5NDg5NiAyMjQuMDU2NDY1LDE3NC44NjAwNyAyMjIuNjU3NTg1LDE3Ni43MjUyNDQgQzIyMS4yNTg3MDQsMTc4LjQzNDk4NyAyMTkuMzkzNTMsMTc5LjgzMzg2OCAyMTcuMzcyOTI1LDE4MC45MjE4ODYgQzIxNS4zNTIzMiwxODIuMDA5OTA0IDIxMi44NjU0MjEsMTgyLjQ3NjE5OCAyMTAuMjIzMDkxLDE4Mi40NzYxOTggQzIwOC4wNDcwNTQsMTgyLjQ3NjE5OCAyMDYuMDI2NDQ5LDE4Mi4wMDk5MDQgMjA0LjAwNTg0NCwxODEuMjMyNzQ4IEMyMDIuMTQwNjcsMTgwLjMwMDE2MSAyMDAuNTg2MzU4LDE3OS4yMTIxNDMgMTk5LjQ5ODM0LDE3Ny42NTc4MzEgTDE5OS4zNDI5MDksMTc3LjY1NzgzMSBMMTk5LjM0MjkwOSwxOTguNjQxMDQgTDE4Ny42ODU1NzEsMTk4LjY0MTA0IEwxODcuNjg1NTcxLDE0Ni40MTYxNjUgTDE5OC43MjExODQsMTQ2LjQxNjE2NSBMMTk4LjcyMTE4NCwxNTAuNzY4MjM4IEwxOTguODc2NjE1LDE1MC43NjgyMzggQzE5OS45NjQ2MzMsMTQ5LjM2OTM1OCAyMDEuNTE4OTQ1LDE0OC4xMjU5MDggMjAzLjM4NDExOSwxNDcuMDM3ODkgQzIwNS4yNDkyOTMsMTQ1Ljk0OTg3MiAyMDcuNTgwNzYxLDE0NS40ODM1NzggMjEwLjIyMzA5MSwxNDUuNDgzNTc4IEMyMTIuNzA5OTksMTQ1LjQ4MzU3OCAyMTUuMDQxNDU3LDE0NS45NDk4NzIgMjE3LjIxNzQ5NCwxNDcuMDM3ODkgQzIxOS4yMzgwOTksMTQ3Ljk3MDQ3NyAyMjEuMTAzMjczLDE0OS4zNjkzNTggMjIyLjUwMjE1MywxNTEuMDc5MTAxIEMyMjMuOTAxMDM0LDE1Mi43ODg4NDQgMjI0Ljk4OTA1MiwxNTQuODA5NDQ5IDIyNS43NjYyMDgsMTU2Ljk4NTQ4NSBDMjI2LjU0MzM2NCwxNTguNjk1MjI4IDIyNy4wMDk2NTgsMTYxLjAyNjY5NiAyMjcuMDA5NjU4LDE2My41MTM1OTUgWiBNMjE1LjY2MzE4MiwxNjMuNTEzNTk1IEMyMTUuNjYzMTgyLDE2Mi40MjU1NzYgMjE1LjUwNzc1MSwxNjEuMzM3NTU4IDIxNS4xOTY4ODgsMTYwLjI0OTU0IEMyMTQuODg2MDI2LDE1OS4xNjE1MjIgMjE0LjI2NDMwMSwxNTguMjI4OTM1IDIxMy42NDI1NzcsMTU3LjQ1MTc3OSBDMjEzLjAyMDg1MiwxNTYuNjc0NjIzIDIxMi4wODgyNjUsMTU1Ljg5NzQ2NyAyMTEuMDAwMjQ3LDE1NS40MzExNzQgQzIwOS45MTIyMjgsMTU0Ljk2NDg4IDIwOC44MjQyMSwxNTQuNjU0MDE4IDIwNy40MjUzMywxNTQuNjU0MDE4IEMyMDYuMDI2NDQ5LDE1NC42NTQwMTggMjA0LjkzODQzMSwxNTQuOTY0ODggMjAzLjg1MDQxMywxNTUuNDMxMTc0IEMyMDIuNzYyMzk0LDE1NS44OTc0NjcgMjAxLjk4NTIzOSwxNTYuNjc0NjIzIDIwMS4yMDgwODMsMTU3LjQ1MTc3OSBDMjAwLjQzMDkyNywxNTguMjI4OTM1IDE5OS45NjQ2MzMsMTU5LjMxNjk1MyAxOTkuNDk4MzQsMTYwLjQwNDk3MSBDMTk5LjAzMjA0NiwxNjEuNDkyOTg5IDE5OC44NzY2MTUsMTYyLjU4MTAwNyAxOTguODc2NjE1LDE2My42NjkwMjYgQzE5OC44NzY2MTUsMTY0Ljc1NzA0NCAxOTkuMDMyMDQ2LDE2NS44NDUwNjIgMTk5LjQ5ODM0LDE2Ni45MzMwOCBDMTk5Ljk2NDYzMywxNjguMDIxMDk5IDIwMC40MzA5MjcsMTY4Ljk1MzY4NiAyMDEuMjA4MDgzLDE2OS44ODYyNzMgQzIwMS45ODUyMzksMTcwLjY2MzQyOSAyMDIuNzYyMzk0LDE3MS40NDA1ODQgMjAzLjg1MDQxMywxNzEuOTA2ODc4IEMyMDQuOTM4NDMxLDE3Mi4zNzMxNzEgMjA2LjAyNjQ0OSwxNzIuNjg0MDM0IDIwNy40MjUzMywxNzIuNjg0MDM0IEMyMDguODI0MjEsMTcyLjY4NDAzNCAyMTAuMDY3NjYsMTcyLjM3MzE3MSAyMTEuMDAwMjQ3LDE3MS45MDY4NzggQzIxMi4wODgyNjUsMTcxLjQ0MDU4NCAyMTIuODY1NDIxLDE3MC42NjM0MjkgMjEzLjY0MjU3NywxNjkuODg2MjczIEMyMTQuMjY0MzAxLDE2OS4xMDkxMTcgMjE0Ljg4NjAyNiwxNjguMDIxMDk5IDIxNS4xOTY4ODgsMTY2LjkzMzA4IEMyMTUuNTA3NzUxLDE2NS42ODk2MzEgMjE1LjY2MzE4MiwxNjQuNjAxNjEzIDIxNS42NjMxODIsMTYzLjUxMzU5NSBaIE0yNDUuNTA1OTY3LDE1NC42NTQwMTggTDI0NS41MDU5NjcsMTY4LjE3NjUzIEMyNDUuNTA1OTY3LDE2OS44ODYyNzMgMjQ1LjgxNjgzLDE3MS4xMjk3MjIgMjQ2LjQzODU1NCwxNzEuOTA2ODc4IEMyNDcuMDYwMjc5LDE3Mi42ODQwMzQgMjQ4LjE0ODI5NywxNzMuMTUwMzI3IDI0OS44NTgwNCwxNzMuMTUwMzI3IEMyNTAuNDc5NzY1LDE3My4xNTAzMjcgMjUxLjEwMTQ4OSwxNzMuMTUwMzI3IDI1MS43MjMyMTQsMTcyLjk5NDg5NiBDMjUyLjM0NDkzOSwxNzIuODM5NDY1IDI1Mi45NjY2NjQsMTcyLjY4NDAzNCAyNTMuMjc3NTI2LDE3Mi41Mjg2MDMgTDI1My40MzI5NTcsMTgxLjA3NzMxNyBDMjUyLjY1NTgwMSwxODEuMzg4MTc5IDI1MS41Njc3ODMsMTgxLjU0MzYxMSAyNTAuMzI0MzM0LDE4MS44NTQ0NzMgQzI0OS4wODA4ODQsMTgyLjAwOTkwNCAyNDcuODM3NDM1LDE4Mi4xNjUzMzUgMjQ2LjU5Mzk4NSwxODIuMTY1MzM1IEMyNDQuMjYyNTE4LDE4Mi4xNjUzMzUgMjQyLjI0MTkxMywxODEuODU0NDczIDI0MC42ODc2MDEsMTgxLjIzMjc0OCBDMjM5LjEzMzI4OSwxODAuNjExMDI0IDIzNy43MzQ0MDksMTc5LjgzMzg2OCAyMzYuODAxODIxLDE3OC43NDU4NSBDMjM1Ljg2OTIzNCwxNzcuNjU3ODMxIDIzNS4wOTIwNzksMTc2LjI1ODk1MSAyMzQuNzgxMjE2LDE3NC43MDQ2MzkgQzIzNC40NzAzNTQsMTczLjE1MDMyNyAyMzQuMTU5NDkyLDE3MS40NDA1ODQgMjM0LjE1OTQ5MiwxNjkuNTc1NDEgTDIzNC4xNTk0OTIsMTU0LjY1NDAxOCBMMjI4LjU2Mzk2OSwxNTQuNjU0MDE4IEwyMjguNTYzOTY5LDE0NS45NDk4NzIgTDIzNC4xNTk0OTIsMTQ1Ljk0OTg3MiBMMjM0LjE1OTQ5MiwxMzYuNjI0MDAyIEwyNDUuNTA1OTY3LDEzNi42MjQwMDIgTDI0NS41MDU5NjcsMTQ1Ljk0OTg3MiBMMjUzLjc0MzgxOSwxNDUuOTQ5ODcyIEwyNTMuNzQzODE5LDE1NC42NTQwMTggTDI0NS41MDU5NjcsMTU0LjY1NDAxOCBMMjQ1LjUwNTk2NywxNTQuNjU0MDE4IFoiPiYjeGE7JiN4YTs8L3BhdGg+JiN4YTsJPC9nPiYjeGE7PC9zdmc+;" parent="1" vertex="1">
          <mxGeometry x="475" y="57" width="110" height="110" as="geometry" />
        </mxCell>
        <mxCell id="wOwmBfAB3eFhhnJRIKay-1" value="" style="html=1;verticalLabelPosition=bottom;strokeWidth=2;strokeColor=#0080F0;fillColor=strokeColor;shadow=0;dashed=0;shape=mxgraph.ios7.icons.orientation_lock;pointerEvents=1;direction=east;" vertex="1" parent="1">
          <mxGeometry x="879" y="461" width="50" height="50" as="geometry" />
        </mxCell>
        <mxCell id="wOwmBfAB3eFhhnJRIKay-2" value="" style="aspect=fixed;sketch=0;html=1;dashed=0;whitespace=wrap;verticalLabelPosition=bottom;verticalAlign=top;fillColor=#2875E2;strokeColor=#ffffff;points=[[0.005,0.63,0],[0.1,0.2,0],[0.9,0.2,0],[0.5,0,0],[0.995,0.63,0],[0.72,0.99,0],[0.5,1,0],[0.28,0.99,0]];shape=mxgraph.kubernetes.icon2;prIcon=secret" vertex="1" parent="1">
          <mxGeometry x="879" y="371" width="50" height="48" as="geometry" />
        </mxCell>
        <mxCell id="wOwmBfAB3eFhhnJRIKay-3" style="edgeStyle=orthogonalEdgeStyle;rounded=0;orthogonalLoop=1;jettySize=auto;html=1;entryX=0.5;entryY=1;entryDx=0;entryDy=0;entryPerimeter=0;" edge="1" parent="1" source="wOwmBfAB3eFhhnJRIKay-1" target="wOwmBfAB3eFhhnJRIKay-2">
          <mxGeometry relative="1" as="geometry" />
        </mxCell>
        <mxCell id="wOwmBfAB3eFhhnJRIKay-4" value="sealed-secrets" style="text;html=1;align=center;verticalAlign=middle;whiteSpace=wrap;rounded=0;" vertex="1" parent="1">
          <mxGeometry x="929" y="471" width="101" height="30" as="geometry" />
        </mxCell>
      </root>
    </mxGraphModel>
  </diagram>
</mxfile>
